<svg width="61" height="61" viewBox="0 0 61 61" fill="none" xmlns="http://www.w3.org/2000/svg">
<path fill-rule="evenodd" clip-rule="evenodd" d="M27.9561 0.0320823C25.312 0.23045 22.7063 0.755592 20.3212 1.57086C16.591 2.84592 13.0453 4.90157 10.1537 7.4655C8.6657 8.78491 6.76223 10.8595 5.8116 12.1981C4.56389 13.955 3.94549 14.9721 3.11119 16.6398C1.41426 20.0317 0.438868 23.5036 0.0626182 27.4914C-0.0208727 28.3761 -0.0208727 31.634 0.0626182 32.5187C0.385353 35.9391 1.15237 38.9809 2.44462 41.9649C2.71267 42.5839 3.56877 44.3055 3.86862 44.8286C6.25044 48.9835 9.64955 52.5939 13.6002 55.165C15.7036 56.5338 17.9971 57.6513 20.3212 58.4398C22.5627 59.2002 24.6863 59.655 27.2279 59.919C28.2228 60.0223 31.5122 60.0369 32.5136 59.9424C37.656 59.4573 42.2136 57.8892 46.3997 55.165C49.0177 53.4611 51.5644 51.1409 53.5131 48.684C54.884 46.9555 55.8775 45.3963 56.8526 43.443C58.5603 40.0224 59.4983 36.7549 59.9145 32.7771C60.0304 31.6693 60.0304 28.3409 59.9145 27.233C59.5037 23.3069 58.5571 19.9832 56.9105 16.6851C56.2393 15.3406 55.9118 14.7648 55.159 13.6053C53.4631 10.9935 51.1706 8.4758 48.6949 6.50627C45.9767 4.34391 42.9176 2.66921 39.6787 1.57039C37.4516 0.814839 35.2994 0.352467 32.819 0.0965916C31.9607 0.00807337 28.8298 -0.0334606 27.9561 0.0320823ZM31.6143 1.17262C31.9309 1.31931 32.1922 1.58181 32.3439 1.90539C32.454 2.14026 32.4665 2.22206 32.4658 2.70727C32.4651 3.16442 32.4479 3.29029 32.354 3.52512C32.1391 4.06201 31.6619 4.39663 31.0552 4.43553C30.2808 4.48524 29.6933 4.16881 29.4222 3.55599C29.3035 3.28743 29.2611 2.60423 29.3398 2.22535C29.4493 1.69795 29.879 1.22821 30.3811 1.08697C30.7367 0.986989 31.2979 1.02599 31.6143 1.17262ZM28.3907 1.8733C28.4479 2.31904 28.5418 3.04762 28.5993 3.49237C28.6568 3.93708 28.6942 4.30999 28.6824 4.32103C28.6706 4.33212 28.5326 4.35571 28.3758 4.37356L28.0907 4.40593L27.9301 3.1781C27.8251 2.3757 27.7587 1.99593 27.7384 2.0821C27.7213 2.15459 27.6478 2.72554 27.5751 3.35086L27.4429 4.48778L27.2532 4.51621C27.1488 4.53185 27.0049 4.55586 26.9335 4.56958C26.8205 4.59119 26.7953 4.574 26.7405 4.43784C26.7058 4.35171 26.5006 3.83014 26.2844 3.27883C26.0683 2.72752 25.8843 2.29794 25.8756 2.32421C25.8668 2.35047 25.9253 2.88336 26.0056 3.50844C26.0859 4.13347 26.1452 4.65129 26.1374 4.65913C26.1296 4.66693 25.9926 4.68812 25.833 4.70616L25.5428 4.73901L25.5159 4.58057C25.4857 4.40335 25.1136 1.54248 25.1136 1.48761C25.1136 1.45115 26.091 1.31644 26.1162 1.34942C26.131 1.36897 26.6354 2.6032 26.8399 3.12073C26.9043 3.28353 26.9673 3.40639 26.98 3.39371C27.002 3.37162 27.2706 1.40402 27.2735 1.24348C27.2746 1.18263 27.349 1.15585 27.6155 1.12057C27.8028 1.09571 28.0306 1.07259 28.1215 1.06912L28.2868 1.06282L28.3907 1.8733ZM33.6144 1.22022C33.8714 1.26922 33.9215 1.29511 33.9499 1.3935C33.9682 1.45711 34.051 1.98489 34.1339 2.56632C34.2167 3.14774 34.2986 3.66142 34.3157 3.70784C34.3452 3.78748 34.6783 3.22217 35.369 1.92028C35.4684 1.73296 35.5643 1.58096 35.5821 1.58256C35.8367 1.6053 36.2228 1.71712 36.2121 1.76491C36.2047 1.79742 35.9956 2.17602 35.7472 2.60625C35.4989 3.03653 35.1379 3.6634 34.9449 3.99933C34.752 4.33527 34.5649 4.6409 34.5292 4.67849C34.4749 4.73572 34.4139 4.73821 34.1542 4.69371C33.9835 4.66449 33.8317 4.62831 33.8168 4.61337C33.789 4.58565 33.2457 1.38884 33.2432 1.23901C33.2417 1.14425 33.2216 1.14528 33.6144 1.22022ZM24.5199 3.22893C24.7205 4.11022 24.8779 4.83805 24.8696 4.84632C24.8514 4.86445 24.2479 5.00569 24.2379 4.99413C24.2341 4.98967 24.1119 4.468 23.9664 3.83489C23.821 3.20178 23.6561 2.4887 23.6001 2.2503C23.544 2.0119 23.511 1.80404 23.5267 1.78835C23.5601 1.75499 23.9763 1.63697 24.0823 1.63081C24.14 1.62748 24.2303 1.95717 24.5199 3.22893ZM30.4876 1.69415C30.3192 1.76744 30.1311 2.00077 30.0534 2.23268C29.9678 2.48842 29.9877 3.12204 30.0883 3.34348C30.3928 4.01385 31.3176 4.0474 31.6516 3.40024C31.7753 3.16052 31.8233 2.55152 31.7423 2.25129C31.6807 2.02327 31.5036 1.79437 31.3123 1.69542C31.1465 1.60972 30.6833 1.60897 30.4876 1.69415ZM22.3436 2.28422C22.5436 2.33976 22.7796 2.57195 22.8795 2.81148C23.0441 3.20615 22.9147 3.68736 22.59 3.88803C22.4204 3.99285 22.3899 4.06957 22.5177 4.07019C22.5629 4.07042 22.6988 4.12854 22.8196 4.19939C23.0827 4.35364 23.8933 5.01631 23.8684 5.05667C23.8587 5.07231 23.6911 5.13518 23.4959 5.1964L23.141 5.3077L22.9644 5.16689C22.3669 4.69024 21.9574 4.40438 21.8333 4.37709C21.6924 4.34617 21.3079 4.4307 21.3079 4.49262C21.3079 4.51024 21.4011 4.80286 21.515 5.14283C21.6289 5.48281 21.7033 5.77261 21.6803 5.78685C21.6402 5.81165 21.1205 5.99616 21.0907 5.99616C21.0715 5.99616 20.0791 2.98518 20.0699 2.8991C20.065 2.85334 20.2613 2.76731 20.6971 2.62415C21.8765 2.23672 22.0464 2.20162 22.3436 2.28422ZM38.6514 2.36278C38.79 2.40586 38.9179 2.45341 38.9355 2.46849C38.9532 2.48353 39.086 3.01384 39.2308 3.64695C39.3756 4.28006 39.5063 4.82978 39.5213 4.86854C39.5364 4.9073 39.7013 4.48445 39.8878 3.92886C40.0743 3.37327 40.2356 2.92062 40.2465 2.92293C40.5861 2.99655 40.7712 3.05946 40.7897 3.10753C40.8155 3.17476 39.8324 6.17071 39.7723 6.20778C39.7514 6.22075 39.6018 6.18368 39.4399 6.12551L39.1456 6.01965L38.9947 5.38537C38.9116 5.03651 38.7852 4.50164 38.7137 4.19676C38.6423 3.89188 38.5685 3.65931 38.5498 3.67993C38.5311 3.70056 38.3837 4.11914 38.2222 4.61013C38.0607 5.10111 37.9103 5.52265 37.888 5.54685C37.8251 5.61521 37.3295 5.44363 37.3295 5.35346C37.3295 5.23535 38.3236 2.28441 38.3634 2.28441C38.3832 2.28441 38.5128 2.31965 38.6514 2.36278ZM21.3784 3.0005C21.1199 3.08183 20.8995 3.15498 20.8886 3.16306C20.8476 3.19337 21.0954 3.89343 21.1553 3.91641C21.265 3.95855 22.0749 3.64681 22.1936 3.51671C22.3356 3.36119 22.3066 3.10814 22.1291 2.95393C21.9751 2.82012 21.9459 2.82196 21.3784 3.0005ZM18.4729 3.92421C19.5164 4.90096 20.7055 6.05038 20.6891 6.06636C20.6478 6.1062 20.1317 6.32505 20.0789 6.32505C20.0457 6.32505 19.8976 6.20534 19.7496 6.05898L19.4808 5.79291L18.8848 6.07073L18.2888 6.34854L18.3149 6.75406L18.3411 7.15958L18.0373 7.2887C17.8702 7.35969 17.7236 7.4079 17.7116 7.39587C17.6884 7.37261 17.5022 4.42445 17.5022 4.07996V3.87755L17.7958 3.74242C17.9573 3.66814 18.1035 3.61096 18.1206 3.61538C18.1376 3.61984 18.2962 3.75877 18.4729 3.92421ZM43.223 4.19079C43.9476 4.54773 44.2741 5.17215 44.1207 5.9075C43.9907 6.53112 43.5711 7.11612 43.0945 7.33798C42.4295 7.64761 41.4609 7.33155 41.0398 6.66761C40.7409 6.19631 40.7481 5.66356 41.0621 5.03299C41.2933 4.5685 41.6235 4.24093 42.0087 4.09396C42.313 3.97786 42.8832 4.02334 43.223 4.19079ZM18.1299 4.57489C18.1427 4.62014 18.1676 4.89499 18.1852 5.18568C18.2028 5.47642 18.2348 5.71426 18.2564 5.71426C18.278 5.71426 18.4596 5.63955 18.6599 5.54826L19.0242 5.38227L18.5812 4.93747C18.3376 4.69282 18.1312 4.49267 18.1224 4.49267C18.1138 4.49267 18.1171 4.52964 18.1299 4.57489ZM42.1639 4.76757C41.9373 4.91134 41.6992 5.24 41.5829 5.56945C41.3372 6.26594 41.7606 6.88271 42.4502 6.83281C42.7859 6.80852 42.9669 6.68387 43.2079 6.311C43.4194 5.9838 43.4838 5.78332 43.4841 5.45114C43.4848 4.82005 42.7121 4.41994 42.1639 4.76757ZM15.6929 5.4441C15.6103 5.8382 15.5281 6.22605 15.5102 6.30597L15.4776 6.45139L16.5385 6.93561C17.1219 7.20192 17.6087 7.43501 17.6202 7.45356C17.6316 7.47212 17.4815 7.58573 17.2866 7.70601L16.9322 7.92472L16.1548 7.51812C15.6058 7.23095 15.3672 7.1281 15.3426 7.16799C15.3234 7.19905 15.2805 7.36848 15.2473 7.54453L15.1869 7.86463L15.4543 8.27485C15.6014 8.50042 15.7153 8.69061 15.7075 8.69742C15.6997 8.70428 15.5718 8.78702 15.4233 8.88137L15.1532 9.05286L14.8407 8.56991C14.3277 7.77705 13.467 6.39393 13.4354 6.3118C13.4138 6.25547 13.4767 6.19021 13.6736 6.06419C13.8207 5.97009 13.9563 5.91103 13.9748 5.93287C13.9934 5.95477 14.1638 6.22286 14.3535 6.52868C14.5756 6.88665 14.7099 7.06233 14.7308 7.02201C14.7485 6.98753 14.8346 6.55894 14.9222 6.06955L15.0815 5.17981L15.4343 4.95368C15.6284 4.82936 15.7998 4.72759 15.8151 4.72759C15.8305 4.72759 15.7755 5.04999 15.6929 5.4441ZM31.5784 5.34092C35.3412 5.59031 38.8614 6.62918 42.0749 8.43859C47.763 11.6414 51.9395 16.8972 53.7426 23.1219C54.9159 27.1722 55.0261 31.6671 54.0518 35.7321C53.1557 39.4707 51.4307 42.9011 48.9575 45.8622C47.9511 47.0672 46.6761 48.3157 45.4471 49.2995C40.2739 53.4407 33.756 55.3099 27.1339 54.5513C21.4308 53.8979 16.1206 51.2563 12.1577 47.101C11.2436 46.1426 10.5648 45.3239 9.84928 44.317C6.29667 39.3174 4.74821 33.2665 5.45344 27.139C5.73389 24.7023 6.33947 22.4537 7.34954 20.099C7.70525 19.2697 7.85603 18.9683 8.42275 17.9536C12.4962 10.6606 20.0006 5.9021 28.3085 5.34426C29.1751 5.28604 30.7267 5.28449 31.5784 5.34092ZM45.9636 5.85836C46.3007 6.10982 46.341 6.15548 46.3055 6.24598C45.74 7.6898 45.5531 8.18483 45.5631 8.2132C45.5698 8.23223 45.9628 7.93012 46.4366 7.54185L47.298 6.83586L47.549 7.00872C47.687 7.10377 47.8692 7.23936 47.9539 7.31007L48.1078 7.43858L47.9422 7.6688C47.851 7.79542 47.5471 8.21616 47.2667 8.60378C46.9863 8.9914 46.6317 9.483 46.4786 9.69617C46.3256 9.90933 46.188 10.0838 46.173 10.0838C46.1202 10.0838 45.6951 9.77801 45.6939 9.73916C45.6932 9.71759 45.9953 9.28318 46.3653 8.77382C46.7352 8.26446 47.0559 7.81699 47.0781 7.7794C47.1261 7.69798 47.2146 7.62708 46.0594 8.59561C45.5763 9.00066 45.1656 9.33204 45.1466 9.33204C45.1277 9.33204 45.0009 9.25536 44.8648 9.16163L44.6173 8.99117L44.7263 8.70353C44.7862 8.54529 44.9966 8.01606 45.1938 7.52742C45.3911 7.03879 45.547 6.63378 45.5404 6.62744C45.5337 6.62105 45.2111 7.05669 44.8235 7.59555C44.4358 8.13437 44.1016 8.57639 44.0806 8.57775C44.02 8.58179 43.6007 8.24572 43.6126 8.20259C43.6185 8.18111 44.0275 7.60899 44.5215 6.93115C45.0155 6.25331 45.4305 5.67047 45.4438 5.63598C45.4851 5.52829 45.5698 5.56452 45.9636 5.85836ZM12.2661 8.83871C12.7495 9.35553 13.2532 9.89012 13.3855 10.0267L13.626 10.275L13.3978 10.4937L13.1695 10.7124L12.5762 10.0809C11.7265 9.17671 11.4184 8.86882 11.4976 9.00315C11.7596 9.44748 12.6628 11.1149 12.6628 11.1542C12.6628 11.1809 12.5592 11.2894 12.4327 11.3953L12.2026 11.588L11.1523 10.9125C10.5748 10.541 10.0938 10.2444 10.0836 10.2534C10.0734 10.2623 10.2252 10.434 10.4208 10.6348C10.6165 10.8357 10.8219 11.0528 10.8773 11.1174C10.9327 11.182 11.1477 11.4086 11.355 11.6209C11.5624 11.8331 11.7248 12.0247 11.7158 12.0466C11.689 12.1123 11.3156 12.4333 11.2711 12.4289C11.2309 12.4249 9.30145 10.3848 9.11779 10.1521L9.02607 10.036L9.37155 9.71928C9.5616 9.54506 9.72999 9.39711 9.74587 9.39053C9.7617 9.38396 10.1972 9.64101 10.7137 9.96177C11.2301 10.2825 11.6591 10.5387 11.6671 10.531C11.675 10.5233 11.5213 10.2239 11.3255 9.86578C11.1297 9.50762 10.8916 9.06357 10.7962 8.87897L10.6229 8.54336L10.9733 8.21156C11.1661 8.02907 11.338 7.88408 11.3555 7.88939C11.3729 7.8947 11.7827 8.32188 12.2661 8.83871ZM49.1029 8.23355C49.217 8.32714 49.3105 8.42834 49.3105 8.45851C49.3105 8.48872 49.062 8.79952 48.7584 9.14927C48.4547 9.49902 47.9854 10.0427 47.7154 10.3573C47.4454 10.672 47.2063 10.9295 47.184 10.9295C47.1162 10.9295 46.7263 10.5845 46.7263 10.5245C46.7263 10.4936 46.8691 10.3025 47.0436 10.0999C47.2182 9.89721 47.6842 9.35609 48.0793 8.89744C48.4744 8.43878 48.8197 8.06347 48.8465 8.06347C48.8733 8.06347 48.9887 8.14 49.1029 8.23355ZM50.6678 9.73112C51.3254 10.4352 51.4466 10.6594 51.4142 11.1118C51.3976 11.3443 51.354 11.5017 51.2553 11.6856C51.0728 12.0255 50.5876 12.4971 50.2334 12.6786C49.9874 12.8046 49.8927 12.8268 49.5924 12.8286C49.319 12.8303 49.1973 12.8081 49.0496 12.7297C48.8292 12.6126 47.6993 11.4639 47.726 11.384C47.7561 11.2934 50.0353 9.14725 50.0902 9.15773C50.1184 9.16318 50.3784 9.42117 50.6678 9.73112ZM24.5777 10.0016C24.4396 10.3175 24.2897 10.8223 24.2185 11.2114C24.157 11.5476 24.1536 12.6299 24.2132 12.9263L24.251 13.1143L24.2875 12.8089C24.3721 12.1007 24.5562 11.4727 24.8021 11.0531C24.8722 10.9334 24.9533 10.8355 24.9822 10.8355C25.147 10.8355 26.4857 11.964 26.9957 12.5328C28.0143 13.6689 28.6963 14.7977 29.3484 16.4267C29.4984 16.8013 29.6218 17.0842 29.6226 17.0552C29.6256 16.9458 29.382 16.052 29.1951 15.487C28.4555 13.2505 27.2745 11.4727 25.8184 10.404C25.4933 10.1654 24.7983 9.7549 24.7194 9.7549C24.7008 9.7549 24.637 9.86592 24.5777 10.0016ZM34.8863 9.95124C33.1064 10.9367 31.6615 12.8964 30.8048 15.487C30.6179 16.052 30.3743 16.9458 30.3773 17.0552C30.3781 17.0842 30.5015 16.8013 30.6515 16.4267C30.9913 15.5777 31.2749 14.989 31.638 14.3787C32.1911 13.449 33.0624 12.3823 33.754 11.788C34.2263 11.3822 34.9516 10.8355 35.0177 10.8355C35.0466 10.8355 35.1277 10.9334 35.1978 11.0531C35.4437 11.4727 35.6278 12.1007 35.7124 12.8089L35.7489 13.1143L35.7867 12.9263C35.8463 12.6299 35.843 11.5476 35.7815 11.2114C35.6763 10.6372 35.3701 9.754 35.2765 9.75551C35.2557 9.75584 35.0801 9.84393 34.8863 9.95124ZM49.7333 10.3764C49.5395 10.5624 49.1949 10.8934 48.9675 11.1121L48.554 11.5097L48.8735 11.8319C49.2749 12.2367 49.4376 12.2971 49.7522 12.158C50.0372 12.0319 50.4434 11.6838 50.6245 11.4103C50.7788 11.1774 50.8154 10.8735 50.7125 10.6797C50.6273 10.5195 50.195 10.0367 50.1374 10.0376C50.1089 10.038 49.9271 10.1905 49.7333 10.3764ZM9.16397 11.5341C9.54647 11.7131 10.0238 12.1642 10.1902 12.5039C10.2962 12.7206 10.3203 12.8338 10.3214 13.1216C10.3226 13.4221 10.3014 13.5175 10.1779 13.7683C10.006 14.1176 9.65604 14.4831 9.3419 14.6416C9.15951 14.7335 9.04238 14.756 8.73961 14.7572C8.40729 14.7584 8.32652 14.7404 8.0426 14.6016C7.6531 14.4113 7.1841 13.9645 7.02384 13.6311C6.85597 13.2818 6.86038 12.7444 7.03423 12.3734C7.24664 11.9201 7.72207 11.5119 8.1758 11.3933C8.42157 11.3291 8.859 11.3914 9.16397 11.5341ZM8.03715 12.1089C7.71122 12.2836 7.54551 12.5466 7.54316 12.893C7.54104 13.2083 7.65827 13.443 7.94304 13.6936C8.54885 14.2269 9.16538 14.2367 9.52937 13.7189C9.70185 13.4734 9.7391 13.1994 9.63654 12.9309C9.48121 12.5241 8.78518 12.0117 8.38652 12.0106C8.2957 12.0103 8.13849 12.0546 8.03715 12.1089ZM53.3837 12.9146C53.4853 13.0502 53.5825 13.1849 53.5996 13.2137C53.6168 13.2426 53.396 13.6338 53.109 14.0829C52.8221 14.5322 52.3981 15.201 52.1669 15.5692C51.9356 15.9374 51.7323 16.2379 51.7148 16.2369C51.6705 16.2344 51.3308 15.7387 51.3308 15.6765C51.3308 15.6485 51.4153 15.4917 51.5187 15.328C51.6221 15.1644 51.7066 15.0163 51.7066 14.999C51.7066 14.9763 51.1777 14.2139 50.9752 13.9449C50.969 13.9366 50.8169 13.9736 50.6372 14.0271C50.4575 14.0806 50.2798 14.1244 50.2423 14.1244C50.1806 14.1244 49.7624 13.6098 49.7965 13.5757C49.8045 13.5678 50.5705 13.3619 51.4988 13.1182C52.4272 12.8746 53.1894 12.6736 53.1928 12.6716C53.1961 12.6696 53.282 12.7789 53.3837 12.9146ZM20.3727 13.3139C20.5573 13.5401 20.7901 13.8942 20.8901 14.1009C21.0673 14.4671 21.2609 15.1088 21.2609 15.33C21.2609 15.5258 21.3481 15.4465 21.3853 15.2168C21.4333 14.9201 21.4338 14.5834 21.3867 14.2536L21.3481 13.9835L21.6686 13.9838C23.7034 13.9855 26.5451 15.3408 29.26 17.6044C29.6049 17.892 29.4275 17.6592 28.8606 17.0802C26.7248 14.899 24.131 13.5688 20.9409 13.0188C19.9411 12.8464 19.9762 12.8281 20.3727 13.3139ZM39.0396 13.0187C35.9817 13.5586 33.4014 14.8442 31.3801 16.8348C30.6847 17.5196 30.3295 17.9466 30.74 17.6044C31.1625 17.2521 32.0854 16.5545 32.5705 16.2208C34.5623 14.8503 36.7997 13.9835 38.3454 13.9835H38.6497L38.6122 14.2771C38.5684 14.6189 38.5699 14.9042 38.6171 15.2168C38.6517 15.4458 38.739 15.5269 38.739 15.33C38.739 15.1341 38.9238 14.4913 39.0733 14.1668C39.2259 13.8358 39.4227 13.5444 39.7653 13.1423L39.9693 12.9028L39.8123 12.9064C39.7259 12.9083 39.3782 12.9588 39.0396 13.0187ZM52.1413 13.5995C51.8247 13.6901 51.5664 13.7766 51.5673 13.7916C51.5704 13.8429 52.037 14.4533 52.0716 14.4513C52.1143 14.4488 52.7628 13.4721 52.7362 13.4505C52.7255 13.4419 52.4578 13.5089 52.1413 13.5995ZM8.4329 15.4863C8.53349 15.5376 8.62774 15.5989 8.64235 15.6226C8.66528 15.6597 7.64596 17.5042 7.53851 17.62C7.51572 17.6446 7.45224 17.6313 7.38661 17.5883C7.32459 17.5477 7.10677 17.4213 6.90262 17.3073C6.47906 17.071 4.70602 16.0486 4.68525 16.0287C4.67773 16.0215 4.74736 15.8861 4.84006 15.728C5.00037 15.4545 5.01353 15.4436 5.11215 15.505C5.46923 15.7268 7.30692 16.7555 7.3462 16.7555C7.37246 16.7555 7.56895 16.449 7.78287 16.0743C7.99674 15.6996 8.18933 15.393 8.21085 15.393C8.23242 15.393 8.3323 15.435 8.4329 15.4863ZM54.8847 15.6058C55.5553 15.9334 56.0151 16.9448 55.7769 17.568C55.6948 17.7829 55.4955 18.0257 55.4048 18.0214C55.3735 18.02 55.2677 17.9135 55.1697 17.7849L54.9915 17.5509L55.0817 17.4234C55.2988 17.1162 55.2392 16.723 54.9263 16.3977C54.5738 16.031 54.1621 16.025 53.5755 16.3779C52.8414 16.8196 52.797 17.6092 53.4793 18.0888L53.6769 18.2277L53.8664 18.1423C53.9706 18.0953 54.0559 18.0489 54.0559 18.0393C54.0559 18.0297 53.9828 17.8768 53.8936 17.6996C53.8044 17.5225 53.7455 17.3634 53.7628 17.3462C53.7801 17.3289 53.8885 17.2731 54.0038 17.2221C54.1693 17.1489 54.222 17.1419 54.2542 17.1891C54.3998 17.4027 54.8543 18.3716 54.8227 18.401C54.8015 18.4208 54.5425 18.5646 54.2473 18.7205L53.7104 19.004L53.4925 18.8936C53.214 18.7524 52.7972 18.3362 52.6339 18.0361C52.2304 17.2947 52.3196 16.5573 52.8756 16.0372C53.4654 15.4855 54.2804 15.3105 54.8847 15.6058ZM21.4488 16.2428C20.1932 16.3632 18.5031 16.7638 17.6431 17.1449L17.4787 17.2177L17.8076 17.2218C18.2209 17.227 18.9223 17.3334 19.3815 17.4608C19.8395 17.5877 20.626 17.9723 20.8488 18.1783L21.0239 18.3403L21.4126 18.2022C23.0652 17.615 25.3378 17.4715 27.4628 17.8201C27.9613 17.9019 28.9639 18.1305 29.1725 18.2099C29.4272 18.307 29.3504 18.22 28.935 17.941C27.5515 17.0115 26.0072 16.4639 24.1974 16.2611C23.546 16.1881 22.1187 16.1786 21.4488 16.2428ZM35.7555 16.2592C33.9617 16.4767 32.4236 17.0281 31.0649 17.941C30.6495 18.22 30.5727 18.307 30.8274 18.2099C31.2176 18.0613 32.4826 17.8109 33.4533 17.6902C34.0975 17.61 35.6947 17.6243 36.4368 17.7168C37.1618 17.8071 38.0216 18.0011 38.5867 18.2019L38.9748 18.3398L39.1339 18.1898C39.2214 18.1072 39.459 17.9541 39.662 17.8494C40.3674 17.4856 41.119 17.2887 42.014 17.2333L42.5212 17.2019L42.1219 17.0502C41.2975 16.7369 40.3659 16.503 39.2539 16.3299C38.4394 16.2031 36.5355 16.1646 35.7555 16.2592ZM4.86342 17.2255C5.05093 17.2291 5.06733 17.2979 4.95179 17.5959C4.84096 17.8817 4.83941 17.8832 4.65095 17.8832C4.41716 17.8832 4.27935 17.9755 4.15804 18.2133C4.05435 18.4165 4.03396 18.7733 4.12106 18.8604C4.15207 18.8914 4.23223 18.9168 4.29923 18.9168C4.42787 18.9168 4.56507 18.7893 5.0661 18.2043C5.3801 17.8375 5.63471 17.6946 5.97064 17.6965C6.30029 17.6984 6.58806 17.857 6.78291 18.1442C6.93551 18.3692 6.93983 18.3883 6.92001 18.7524C6.9029 19.0672 6.87227 19.1817 6.73151 19.4571C6.42869 20.0499 6.15041 20.2529 5.63865 20.2543C5.13743 20.2557 5.13249 20.251 5.25122 19.8858L5.35041 19.5807L5.5966 19.5894C5.78238 19.596 5.87536 19.5739 5.97562 19.4997C6.1769 19.3507 6.31823 19.069 6.31917 18.8153C6.31983 18.628 6.29902 18.5787 6.17535 18.4746C6.09586 18.4077 6.00147 18.353 5.96557 18.353C5.86925 18.353 5.58871 18.6142 5.31042 18.963C4.96255 19.399 4.73778 19.5434 4.37685 19.5628C3.69717 19.5995 3.32586 19.0564 3.52573 18.318C3.70775 17.6456 4.26498 17.1169 4.69897 17.205C4.75065 17.2155 4.82465 17.2247 4.86342 17.2255ZM22.1301 18.4279C21.0412 18.4932 19.7525 18.6574 19.2641 18.7931L19.0291 18.8584L19.2171 18.9463L19.405 19.0343L18.8107 19.0578C18.3132 19.0775 18.2003 19.0958 18.1177 19.1708C17.9735 19.3015 17.9857 19.5416 18.1428 19.6651C18.2665 19.7624 18.2733 19.7625 23.7863 19.7625H29.306L29.2198 19.6333C29.1724 19.5623 29.0786 19.3989 29.0115 19.2703C28.8921 19.0419 28.8803 19.0337 28.4932 18.9106C28.0166 18.759 27.1568 18.6094 26.2104 18.5135C25.5532 18.4468 22.7839 18.3888 22.1301 18.4279ZM34.8628 18.4293C33.4289 18.5224 32.1526 18.7054 31.5067 18.9107C31.1196 19.0337 31.1078 19.0418 30.9885 19.2703C30.9213 19.3989 30.8275 19.5623 30.7801 19.6333L30.6939 19.7625H36.2353H41.7766L41.8788 19.6538C42.0103 19.5137 42.012 19.2884 41.8823 19.1708C41.7997 19.0958 41.6868 19.0775 41.1892 19.0578L40.5949 19.0343L40.7828 18.9474L40.9708 18.8606L40.7593 18.7962C40.4804 18.7112 39.7586 18.5961 38.9739 18.5116C38.3658 18.4461 35.4906 18.3885 34.8628 18.4293ZM28.9447 18.5849C28.9079 18.6444 29.2379 19.3942 29.3771 19.5672C29.7833 20.0721 30.2149 20.0743 30.6177 19.5736C30.7535 19.4047 31.0907 18.6423 31.0551 18.5847C31.0443 18.5672 30.9134 18.5815 30.7643 18.6166C30.6153 18.6517 30.2713 18.6804 30 18.6804C29.7286 18.6804 29.3847 18.6517 29.2356 18.6166C29.0865 18.5815 28.9556 18.5672 28.9447 18.5849ZM56.7253 18.877C56.7824 19.036 56.8237 19.1715 56.8168 19.1782C56.7994 19.1953 55.9008 19.5481 54.7394 19.9939C54.198 20.2017 53.7429 20.3522 53.7282 20.3283C53.6703 20.2346 53.525 19.7609 53.5473 19.7386C53.59 19.6959 56.4737 18.5924 56.5484 18.5901C56.5958 18.5887 56.6576 18.6888 56.7253 18.877ZM5.93536 21.0537C5.96355 21.0819 5.80066 21.6379 5.75621 21.6653C5.73929 21.6758 5.02556 21.4517 4.17007 21.1674L2.61466 20.6505L2.68687 20.4062C2.8197 19.957 2.65925 19.9464 4.37647 20.5186C5.22082 20.7998 5.92234 21.0407 5.93536 21.0537ZM25.5852 22.5533C25.507 22.7591 25.1043 23.3299 25.0181 23.3573C24.944 23.3808 24.9336 23.4585 24.9245 24.0516C24.919 24.4188 24.9104 24.7828 24.9055 24.8603C24.8932 25.0524 24.9224 25.0935 24.9991 24.9923C25.054 24.92 25.0638 25.4972 25.0651 28.8422L25.0666 32.7771H24.7842H24.5019L24.5141 28.0787C24.5208 25.4946 24.5105 23.3803 24.4911 23.3803C24.4717 23.3803 24.4558 23.8243 24.4558 24.367V25.3536H24.199H23.9421L23.9271 24.8251L23.9121 24.2965L23.9021 24.8251C23.8961 25.1394 23.873 25.3536 23.845 25.3536C23.8165 25.3536 23.798 25.1461 23.798 24.8251V24.2965H22.1536H20.5091L20.4997 24.8368L20.4903 25.3771L20.4645 24.8368L20.4387 24.2965H18.8177H17.1968L17.171 24.8368L17.1452 25.3771L17.1357 24.8368L17.1263 24.2965H15.4818H13.8374V24.8251V25.3536H12.1695C10.7182 25.3536 10.5015 25.3445 10.5015 25.2832C10.5015 25.2219 10.7099 25.2127 12.0951 25.2127C13.3259 25.2127 13.694 25.226 13.7123 25.2714C13.7253 25.3038 13.7377 25.0976 13.7397 24.8133L13.7434 24.2965H12.099H10.4545L10.4451 24.8368L10.4356 25.3771L10.4099 24.8368L10.3841 24.2965H8.75136H7.11861L7.11866 30.933V37.5695H30H52.8812V30.933L52.8813 24.2965H51.2486H49.6158L49.5901 24.8368L49.5643 25.3771L49.5548 24.8368L49.5454 24.2965L47.8986 24.3075L46.2518 24.3185L46.2424 24.8103C46.2365 25.121 46.2494 25.2857 46.2776 25.2574C46.3041 25.2309 46.9678 25.2127 47.9103 25.2127C49.2906 25.2127 49.4984 25.2219 49.4984 25.2832C49.4984 25.3445 49.2817 25.3536 47.8305 25.3536H46.1625V24.8251V24.2965H44.5181H42.8736L42.8642 24.8368L42.8547 25.3771L42.8289 24.8368L42.8031 24.2965H41.1822H39.5612L39.5354 24.8368L39.5096 25.3771L39.5002 24.8368L39.4908 24.2965H37.8463H36.2019L36.1974 24.5549C36.1949 24.697 36.1896 24.9233 36.1856 25.0576C36.1811 25.212 36.1948 25.2855 36.223 25.2573C36.2495 25.2309 36.9152 25.2127 37.8557 25.2127C39.236 25.2127 39.4438 25.2219 39.4438 25.2832C39.4438 25.3445 39.2273 25.3536 37.7773 25.3536H36.1109L36.096 24.8016L36.0811 24.2495L36.071 24.8016L36.0609 25.3536H35.8025H35.5441V24.367V23.3803H35.2712C35.121 23.3803 34.9661 23.3539 34.9269 23.3216C34.8203 23.2338 34.508 22.7751 34.4335 22.5968L34.3682 22.4406H33.993H33.6177V22.7483C33.6177 23.0256 33.6305 23.0669 33.7469 23.1671C33.818 23.2283 33.8628 23.2917 33.8465 23.3081C33.8302 23.3245 33.6716 23.3315 33.4941 23.3238L33.1714 23.3098L33.3006 23.187C33.4162 23.077 33.4298 23.0314 33.4298 22.7524V22.4406H33.0539C32.7943 22.4406 32.6781 22.458 32.6781 22.4966C32.6781 22.5829 32.2052 23.2831 32.0948 23.3604C32.0026 23.4249 31.9959 23.4794 31.982 24.2768L31.9673 25.1247L32.0643 25.0278C32.1176 24.9744 32.1612 24.8917 32.1612 24.8438C32.1612 24.7586 32.6098 24.0439 32.6707 24.0321C32.6877 24.0288 32.7491 24.0211 32.8073 24.015L32.913 24.0039V24.8433C32.913 25.3715 32.8955 25.6825 32.866 25.6825C32.8401 25.6825 32.819 25.5675 32.819 25.4269C32.819 25.2863 32.8004 25.1597 32.7775 25.1456C32.7547 25.1315 32.6191 25.1603 32.4761 25.2095C32.3331 25.2586 32.2037 25.2866 32.1887 25.2715C32.1736 25.2563 32.1612 25.6114 32.1612 26.0604V26.8768L32.3139 26.656L32.4666 26.4352L33.5238 26.4362L34.5809 26.4372L34.7336 26.64C34.8674 26.8177 34.8863 26.8787 34.8863 27.1319C34.8863 27.2909 34.8811 27.4207 34.8746 27.4203C34.8681 27.42 34.7288 27.3777 34.565 27.3264C34.4012 27.275 34.1739 27.233 34.0599 27.233H33.8527V27.5149V27.7968H33.5238H33.1949V27.5149V27.233L32.9952 27.2334C32.8854 27.2336 32.6634 27.2739 32.5019 27.323C32.3404 27.3721 32.2037 27.3984 32.1983 27.3814C32.1928 27.3644 32.1769 27.6993 32.163 28.1257C32.1491 28.5521 32.1449 28.9179 32.1537 28.9385C32.1624 28.9592 32.2446 28.8799 32.3362 28.7623L32.5027 28.5486H33.5279H34.5531L34.7197 28.7668C34.8669 28.9594 34.8863 29.0172 34.8863 29.261V29.537L34.7571 29.5055C34.686 29.4881 34.546 29.4455 34.4458 29.4106C34.3457 29.3758 34.1712 29.3473 34.0582 29.3473H33.8527V29.6292V29.9111H33.5238H33.1949V29.6292V29.3473H32.9894C32.8763 29.3473 32.6922 29.3796 32.5803 29.4191C32.4684 29.4586 32.3283 29.4949 32.269 29.4998L32.1612 29.5087V30.3258V31.1429L32.3185 30.9146L32.4758 30.6864L33.5138 30.6737L34.5517 30.6611L34.719 30.8802C34.8674 31.0744 34.8863 31.1308 34.8863 31.3781V31.657L34.7336 31.6283L34.5809 31.5996L34.7336 31.6693L34.8863 31.7389V32.2581V32.7771L34.7336 32.7771C34.604 32.777 34.5578 32.743 34.4277 32.5521C34.2836 32.3408 34.2748 32.3041 34.2801 31.9414C34.2848 31.6186 34.2983 31.5551 34.3628 31.5526C34.4113 31.5507 34.397 31.5324 34.3241 31.5034C34.2604 31.4779 34.1335 31.4634 34.0422 31.4711L33.8762 31.4851L33.8621 31.7552L33.848 32.0254H33.5214H33.1949V31.7435V31.4616L33.0187 31.4622C32.9218 31.4625 32.7084 31.5049 32.5445 31.5562C32.3806 31.6076 32.2272 31.6378 32.2038 31.6233C32.1792 31.6081 32.1612 31.8462 32.1612 32.1871V32.7771H31.8554H31.5495L31.5617 28.0787C31.5731 23.6842 31.5688 23.3803 31.4941 23.3803C31.4502 23.3803 31.3562 23.301 31.2853 23.2041C31.0162 22.8367 31.0534 22.9432 31.3466 23.3795C31.448 23.5304 31.4564 23.5903 31.4552 24.1547L31.4539 24.7663L31.3097 24.6019L31.1655 24.4375L31.2604 24.6019C31.3467 24.7513 31.3557 24.8531 31.3593 25.7147C31.3619 26.3083 31.3456 26.6741 31.3158 26.6925C31.2839 26.7122 31.2846 26.7524 31.3178 26.8144C31.345 26.8653 31.3609 27.0173 31.3531 27.1522C31.3399 27.382 31.3316 27.3968 31.2215 27.3869C31.1068 27.3766 31.107 27.3775 31.2333 27.4261L31.3625 27.4758V28.1531C31.3625 28.5323 31.3435 28.8305 31.3194 28.8305C31.2957 28.8305 31.233 28.7724 31.18 28.7013C31.127 28.6302 31.0829 28.585 31.0821 28.6008C31.0812 28.6167 31.144 28.7094 31.2215 28.807C31.342 28.9585 31.3625 29.0245 31.3625 29.2598C31.3625 29.4113 31.3467 29.535 31.3273 29.5346C31.3079 29.5343 31.158 29.492 30.9942 29.4407C30.8304 29.3893 30.6137 29.3473 30.5126 29.3473H30.3288V29.6292V29.9111H30H29.6711V29.6292V29.3473H29.4873C29.3862 29.3473 29.1696 29.3893 29.0057 29.4407C28.8419 29.492 28.6921 29.5343 28.6727 29.5346C28.6532 29.535 28.6374 29.4141 28.6374 29.2661C28.6374 29.0397 28.6617 28.9613 28.7901 28.7728L28.9428 28.5488L30.0139 28.5487L31.0849 28.5486L30.9183 28.3304C30.7578 28.1202 30.7517 28.0977 30.7517 27.7144V27.3165L30.9279 27.3439L31.1041 27.3712L30.9396 27.3057C30.8492 27.2697 30.6747 27.2386 30.552 27.2366L30.3288 27.233V27.5149V27.7968H30H29.6711V27.5149V27.233L29.4714 27.2334C29.3616 27.2336 29.1343 27.2757 28.9663 27.327C28.7983 27.3783 28.6556 27.4204 28.6492 27.4206C28.6427 27.4208 28.6374 27.2932 28.6374 27.1371C28.6374 26.8907 28.6576 26.8258 28.7901 26.6456L28.9428 26.4379L29.9905 26.4361L31.0381 26.4343L31.1575 26.5635C31.2232 26.6346 31.1588 26.5372 31.0143 26.3473L30.7517 26.0018V25.5838C30.7517 25.3538 30.7596 25.1657 30.7693 25.1657C30.779 25.1657 30.8768 25.1974 30.9866 25.2362C31.0965 25.2749 31.2101 25.305 31.2392 25.303C31.3009 25.2988 30.8505 25.1277 30.7634 25.1224C30.7226 25.1199 30.7047 25.2045 30.7047 25.4006C30.7047 25.5572 30.6839 25.6825 30.6577 25.6825C30.6281 25.6825 30.6108 25.3693 30.6108 24.8368C30.6108 23.9912 30.6108 23.9911 30.7165 23.9907C30.7775 23.9904 30.8787 24.055 30.9559 24.1434L31.0897 24.2965L30.9912 24.1265C30.9059 23.9794 30.8927 23.8799 30.8927 23.3865C30.8927 23.073 30.9096 22.8165 30.9302 22.8165C30.9509 22.8165 30.9962 22.843 31.0308 22.8752C31.0654 22.9076 31.0379 22.8498 30.9697 22.7469C30.9015 22.644 30.8457 22.533 30.8457 22.5002C30.8457 22.4571 30.742 22.4406 30.4698 22.4406H30.0939V22.7524C30.0939 23.0314 30.1075 23.077 30.2231 23.187L30.3523 23.3098L30.0296 23.3238C29.8521 23.3315 29.6936 23.3244 29.6773 23.3079C29.6609 23.2914 29.7057 23.2315 29.7768 23.1747C29.8947 23.0805 29.906 23.0437 29.906 22.756V22.4406H29.5333C29.1881 22.4406 29.1581 22.4484 29.127 22.5463C29.0708 22.7233 28.6254 23.3453 28.5386 23.368C28.465 23.3872 28.4567 23.4749 28.4539 24.2658C28.4511 25.0533 28.4577 25.1303 28.519 25.0248C28.5789 24.9214 28.5873 25.3812 28.5888 28.8422L28.5904 32.7771H28.3085H28.0266V28.0787C28.0266 24.4875 28.0135 23.3803 27.9709 23.3803C27.9403 23.3803 27.8629 23.3328 27.7989 23.2746C27.6794 23.166 27.694 23.2143 27.8477 23.4365C27.9244 23.5472 27.9338 23.6413 27.9223 24.1837L27.9092 24.8044L27.639 24.3982L27.3688 23.992L27.3703 23.369C27.3717 22.7986 27.378 22.754 27.4442 22.84C27.4839 22.8917 27.5595 22.9868 27.612 23.0514L27.7076 23.1689L27.6247 23.0279C27.579 22.9504 27.4922 22.8134 27.4318 22.7234C27.3713 22.6334 27.3219 22.533 27.3219 22.5002C27.3219 22.4571 27.2182 22.4406 26.946 22.4406H26.5701V22.7691C26.5701 23.0467 26.5847 23.1067 26.6641 23.1563C26.8484 23.2714 26.7745 23.3333 26.4527 23.3333C26.2847 23.3333 26.1473 23.3137 26.1473 23.2898C26.1473 23.2658 26.2011 23.2038 26.267 23.152C26.3762 23.0661 26.3856 23.0315 26.3727 22.7609L26.3587 22.4641L25.9941 22.4504C25.6436 22.4372 25.6279 22.4411 25.5852 22.5533ZM34.7394 23.1834L34.9803 23.5502V24.1813V24.8123L34.7627 24.4839C34.6431 24.3033 34.5237 24.1344 34.4974 24.1086C34.4291 24.0413 34.4935 24.153 34.7031 24.465L34.8795 24.7276L34.8812 25.7336L34.8829 26.7397L34.7238 26.5599L34.5648 26.3802L33.5745 26.3854C33.0297 26.3883 32.5841 26.3729 32.5841 26.3511C32.5841 26.3294 32.6369 26.24 32.7015 26.1524C32.7661 26.0648 32.819 25.9656 32.819 25.9318C32.819 25.8981 32.8401 25.8705 32.866 25.8705C32.8918 25.8705 32.913 25.9022 32.913 25.941C32.913 25.9951 32.973 26.0114 33.1714 26.0114C33.3698 26.0114 33.4298 25.9951 33.4298 25.941C33.4298 25.9018 33.4716 25.8705 33.5238 25.8705C33.576 25.8705 33.6177 25.9018 33.6177 25.941C33.6177 25.9951 33.6778 26.0114 33.8762 26.0114C34.0745 26.0114 34.1346 25.9951 34.1346 25.941C34.1346 25.9022 34.1663 25.8705 34.205 25.8705C34.2486 25.8705 34.2755 25.8263 34.2755 25.7545C34.2755 25.6707 34.256 25.646 34.205 25.6655C34.144 25.689 34.1346 25.5781 34.1346 24.8357V23.9788L34.299 24.0055L34.4635 24.0322V23.4243C34.4635 23.09 34.4713 22.8165 34.481 22.8165C34.4907 22.8165 34.607 22.9816 34.7394 23.1834ZM28.1793 23.4127C28.2245 23.4245 28.2986 23.4245 28.3438 23.4127C28.389 23.4009 28.352 23.3912 28.2615 23.3912C28.1711 23.3912 28.1341 23.4009 28.1793 23.4127ZM31.6796 23.4114C31.712 23.4245 31.7648 23.4245 31.7971 23.4114C31.8294 23.3984 31.803 23.3877 31.7384 23.3877C31.6738 23.3877 31.6474 23.3984 31.6796 23.4114ZM26.7472 24.7141L26.7346 25.659L26.4644 25.6731L26.1942 25.6872V24.7008V23.7144L26.4174 23.7C26.5401 23.6921 26.6675 23.7045 26.7003 23.7275C26.7459 23.7594 26.757 23.9918 26.7472 24.7141ZM33.8057 24.7004V25.6825H33.5238H33.2419V24.6998C33.2419 24.0904 33.2596 23.7111 33.2886 23.7014C33.3143 23.6928 33.4411 23.693 33.5705 23.702L33.8057 23.7183V24.7004ZM30.2711 24.6841L30.2584 25.659L29.9882 25.6731L29.7181 25.6872V24.6982V23.7092H30.0009H30.2838L30.2711 24.6841ZM25.8547 24.8486C25.8658 25.5698 25.8578 25.6825 25.796 25.6825C25.7398 25.6825 25.7244 25.6218 25.7244 25.4006C25.7244 25.2456 25.7191 25.1189 25.7126 25.1191C25.7062 25.1193 25.5688 25.1597 25.4073 25.2087L25.1136 25.2981V25.0199C25.1136 24.7671 25.1339 24.7107 25.3368 24.4017C25.592 24.0127 25.6194 23.9862 25.7479 24.0026C25.8373 24.014 25.8425 24.0548 25.8547 24.8486ZM27.3302 24.0498C27.3705 24.0822 27.4909 24.2396 27.5976 24.3996L27.7917 24.6907V25.7071V26.7234L27.6815 26.5906C27.235 26.0526 27.2279 26.0368 27.2279 25.5849C27.2279 25.3544 27.2358 25.1657 27.2455 25.1657C27.2551 25.1657 27.353 25.1974 27.4628 25.2362C27.5727 25.2749 27.6863 25.305 27.7154 25.303C27.777 25.2988 27.3267 25.1277 27.2396 25.1224C27.1988 25.1199 27.1809 25.2045 27.1809 25.4006C27.1809 25.5572 27.16 25.6825 27.1339 25.6825C27.1043 25.6825 27.0869 25.3693 27.0869 24.8368C27.0869 24.0522 27.0931 23.9911 27.1719 23.9911C27.2187 23.9911 27.2899 24.0176 27.3302 24.0498ZM29.3892 24.8407C29.3892 25.4994 29.376 25.686 29.3304 25.671C29.2951 25.6593 29.2661 25.5458 29.2576 25.3852C29.2499 25.2386 29.2373 25.1187 29.2297 25.1187C29.2221 25.1187 29.0981 25.1593 28.9541 25.2088C28.8101 25.2584 28.6799 25.2866 28.6649 25.2715C28.6498 25.2563 28.6374 25.1345 28.6374 25.0007C28.6374 24.7959 28.668 24.7098 28.8305 24.4565C29.0888 24.0539 29.1494 23.9911 29.279 23.9911H29.3892V24.8407ZM34.2755 25.1685C34.2755 25.2014 34.2872 25.2167 34.3015 25.2024C34.3158 25.1881 34.425 25.2057 34.5442 25.2416C34.6633 25.2775 34.7701 25.2976 34.7813 25.2864C34.7926 25.2751 34.7138 25.2422 34.6062 25.2132C34.4986 25.1842 34.3802 25.1488 34.343 25.1346C34.3059 25.1203 34.2755 25.1356 34.2755 25.1685ZM7.5885 25.2832C7.42781 25.375 7.16564 25.375 7.16564 25.2832C7.16564 25.2285 7.22625 25.2131 7.4358 25.2143C7.69379 25.2159 7.70065 25.219 7.5885 25.2832ZM9.09199 25.2597C9.09199 25.2865 8.95104 25.3067 8.7631 25.3067C8.57517 25.3067 8.43421 25.2865 8.43421 25.2597C8.43421 25.2329 8.57517 25.2127 8.7631 25.2127C8.95104 25.2127 9.09199 25.2329 9.09199 25.2597ZM9.89072 25.2772L10.1022 25.3402L10.1159 25.6737C10.1235 25.8571 10.1235 26.1704 10.1159 26.37L10.1022 26.7328L9.83242 26.3986L9.56263 26.0644L9.54332 25.6653C9.5327 25.4458 9.53604 25.2542 9.55075 25.2394C9.59031 25.1999 9.65613 25.2072 9.89072 25.2772ZM10.3606 25.2832C10.3606 25.3676 10.2978 25.3676 10.0787 25.2832L9.91422 25.2198L10.1374 25.2163C10.306 25.2136 10.3606 25.2299 10.3606 25.2832ZM17.0793 25.2832C17.0793 25.3444 16.8705 25.3536 15.4818 25.3536C14.0932 25.3536 13.8844 25.3444 13.8844 25.2832C13.8844 25.2219 14.0932 25.2127 15.4818 25.2127C16.8705 25.2127 17.0793 25.2219 17.0793 25.2832ZM20.4152 25.2832C20.4152 25.3444 20.2064 25.3536 18.8177 25.3536C17.4291 25.3536 17.2203 25.3444 17.2203 25.2832C17.2203 25.2219 17.4291 25.2127 18.8177 25.2127C20.2064 25.2127 20.4152 25.2219 20.4152 25.2832ZM23.7511 25.2832C23.7511 25.3444 23.5423 25.3536 22.1536 25.3536C20.7649 25.3536 20.5561 25.3444 20.5561 25.2832C20.5561 25.2219 20.7649 25.2127 22.1536 25.2127C23.5423 25.2127 23.7511 25.2219 23.7511 25.2832ZM42.7797 25.2832C42.7797 25.3444 42.5709 25.3536 41.1822 25.3536C39.7935 25.3536 39.5847 25.3444 39.5847 25.2832C39.5847 25.2219 39.7935 25.2127 41.1822 25.2127C42.5709 25.2127 42.7797 25.2219 42.7797 25.2832ZM46.1155 25.2832C46.1155 25.3444 45.9067 25.3536 44.5181 25.3536C43.1294 25.3536 42.9206 25.3444 42.9206 25.2832C42.9206 25.2219 43.1294 25.2127 44.5181 25.2127C45.9067 25.2127 46.1155 25.2219 46.1155 25.2832ZM50.0387 25.2849C49.8454 25.3734 49.6393 25.3725 49.6393 25.2832C49.6393 25.2282 49.699 25.2135 49.9095 25.2165C50.1767 25.2203 50.1781 25.221 50.0387 25.2849ZM51.5657 25.2597C51.5657 25.2865 51.4247 25.3067 51.2368 25.3067C51.0489 25.3067 50.9079 25.2865 50.9079 25.2597C50.9079 25.2329 51.0489 25.2127 51.2368 25.2127C51.4247 25.2127 51.5657 25.2329 51.5657 25.2597ZM52.3388 25.269C52.4547 25.3 52.5554 25.3476 52.5626 25.3747C52.5699 25.4019 52.5653 25.7145 52.5524 26.0695L52.5289 26.7148L52.2587 26.3653L51.9886 26.0158V25.6143C51.9886 25.1653 51.9805 25.1732 52.3388 25.269ZM52.8343 25.2832C52.8343 25.3707 52.7688 25.371 52.5289 25.2845L52.3409 25.2168L52.5876 25.2148C52.7765 25.2132 52.8343 25.2292 52.8343 25.2832ZM11.958 26.7397V27.7968H11.3002H10.6425V26.7397V25.6825H11.3002H11.958V26.7397ZM13.5916 26.7279L13.579 27.7733L12.9329 27.7864L12.2869 27.7995V26.741V25.6825H12.9456H13.6043L13.5916 26.7279ZM15.2939 26.741V27.7995L14.6479 27.7864L14.0018 27.7733L13.9892 26.7279L13.9766 25.6825H14.6352H15.2939V26.741ZM16.9384 26.741V27.7995L16.2923 27.7864L15.6463 27.7733L15.6336 26.7279L15.621 25.6825H16.2797H16.9384V26.741ZM18.6298 26.7397V27.7968H17.9955H17.3612V26.7397V25.6825H17.9955H18.6298V26.7397ZM20.2742 26.7397V27.7968H19.6399H19.0057V26.7397V25.6825H19.6399H20.2742V26.7397ZM22.0018 26.7279L21.9892 27.7733L21.3431 27.7864L20.6971 27.7995V26.741V25.6825H21.3558H22.0144L22.0018 26.7279ZM23.6462 26.7279L23.6336 27.7733L22.9876 27.7864L22.3415 27.7995V26.741V25.6825H23.0002H23.6589L23.6462 26.7279ZM37.6584 26.741V27.7995L37.0123 27.7864L36.3663 27.7733L36.3537 26.7279L36.341 25.6825H36.9997H37.6584V26.741ZM39.3028 26.7397V27.7968H38.645H37.9873V26.7397V25.6825H38.645H39.3028V26.7397ZM40.9943 26.7397V27.7968H40.3617H39.7292L39.7157 26.7592C39.7082 26.1885 39.711 25.7127 39.7218 25.702C39.7325 25.6913 40.0232 25.6825 40.3678 25.6825H40.9943V26.7397ZM42.6387 26.741V27.7995L41.9927 27.7864L41.3466 27.7733L41.3589 26.7867C41.3657 26.244 41.371 25.7736 41.3706 25.7413C41.3703 25.6971 41.528 25.6825 42.0044 25.6825H42.6387V26.741ZM44.3536 26.7397V27.7733L43.7076 27.7864L43.0616 27.7995V26.7397V25.6799L43.7076 25.693L44.3536 25.706V26.7397ZM46.0114 26.6457C46.0187 27.1625 46.013 27.633 45.9987 27.6911C45.9734 27.7942 45.9572 27.7968 45.3394 27.7968H44.706V26.7384V25.6799L45.352 25.693L45.9981 25.706L46.0114 26.6457ZM47.713 26.741V27.7995L47.067 27.7864L46.4209 27.7733L46.4083 26.7279L46.3956 25.6825H47.0543H47.713V26.741ZM49.3574 26.7397V27.7968H48.6997H48.0419V26.7397V25.6825H48.6997H49.3574V26.7397ZM8.85707 25.941C8.85707 25.9948 8.92088 26.0127 9.12723 26.017C9.27579 26.0201 9.41177 26.0205 9.42939 26.0181C9.47139 26.0122 9.70279 26.288 9.70279 26.3439C9.70279 26.369 9.30619 26.3873 8.7631 26.3873C8.22001 26.3873 7.82342 26.369 7.82342 26.3439C7.82342 26.3201 7.87816 26.2355 7.94506 26.156C8.05759 26.0222 8.08926 26.0114 8.36792 26.0114C8.60434 26.0114 8.66913 25.9963 8.66913 25.941C8.66913 25.9018 8.7109 25.8705 8.7631 25.8705C8.8153 25.8705 8.85707 25.9018 8.85707 25.941ZM25.8653 25.941C25.8653 25.9951 25.9254 26.0114 26.1238 26.0114C26.3221 26.0114 26.3822 25.9951 26.3822 25.941C26.3822 25.9018 26.4239 25.8705 26.4761 25.8705C26.5283 25.8705 26.5701 25.9018 26.5701 25.941C26.5701 25.9951 26.6302 26.0114 26.8285 26.0114C27.0269 26.0114 27.0869 25.9951 27.0869 25.941C27.0869 25.9022 27.1081 25.8705 27.1339 25.8705C27.1598 25.8705 27.1809 25.8973 27.1809 25.93C27.1809 25.9628 27.2338 26.0674 27.2984 26.1625C27.363 26.2575 27.4158 26.347 27.4158 26.3613C27.4158 26.3756 26.9824 26.3873 26.4527 26.3873C25.9229 26.3873 25.4895 26.3745 25.4895 26.3588C25.4895 26.3432 25.5423 26.2676 25.6069 26.1908C25.6715 26.114 25.7244 26.0105 25.7244 25.9608C25.7244 25.9111 25.7561 25.8705 25.7949 25.8705C25.8336 25.8705 25.8653 25.9022 25.8653 25.941ZM29.3892 25.941C29.3892 25.9951 29.4492 26.0114 29.6476 26.0114C29.8459 26.0114 29.906 25.9951 29.906 25.941C29.906 25.9018 29.9478 25.8705 30 25.8705C30.0522 25.8705 30.0939 25.9018 30.0939 25.941C30.0939 25.9951 30.154 26.0114 30.3523 26.0114C30.5507 26.0114 30.6108 25.9951 30.6108 25.941C30.6108 25.9022 30.6319 25.8705 30.6577 25.8705C30.6836 25.8705 30.7047 25.8981 30.7047 25.9318C30.7047 25.9656 30.7576 26.0648 30.8222 26.1524C30.8868 26.24 30.9396 26.3286 30.9396 26.3494C30.9396 26.3702 30.5168 26.3873 30 26.3873C29.0039 26.3873 28.9386 26.371 29.1542 26.1759C29.2059 26.1291 29.2482 26.0413 29.2482 25.9806C29.2482 25.914 29.2761 25.8705 29.3187 25.8705C29.3574 25.8705 29.3892 25.9022 29.3892 25.941ZM51.3308 25.941C51.3308 25.9963 51.3958 26.0114 51.6338 26.0114C51.9222 26.0114 51.9426 26.019 52.0566 26.1685C52.1225 26.255 52.1765 26.3396 52.1765 26.3565C52.1765 26.3734 51.7536 26.3873 51.2368 26.3873C50.2152 26.3873 50.1934 26.3807 50.4165 26.1402C50.5228 26.0254 50.5689 26.0114 50.8393 26.0114C51.0778 26.0114 51.1428 25.9963 51.1428 25.941C51.1428 25.9018 51.1846 25.8705 51.2368 25.8705C51.289 25.8705 51.3308 25.9018 51.3308 25.941ZM58.7723 26.0467C58.7864 26.1178 58.8035 26.2705 58.8103 26.3861L58.8227 26.5964L57.3907 26.747C56.6031 26.8298 55.8608 26.899 55.741 26.9008L55.5233 26.9041L55.4902 26.595C55.472 26.425 55.4643 26.2789 55.473 26.2703C55.4817 26.2617 55.732 26.2301 56.0292 26.2001C56.3264 26.17 57.0241 26.0967 57.5797 26.0371C58.1353 25.9776 58.6252 25.9263 58.6683 25.9231C58.7186 25.9195 58.756 25.9639 58.7723 26.0467ZM34.2755 26.0424C34.2755 26.068 34.3336 26.1403 34.4047 26.2029L34.5339 26.3168L34.4165 26.1759C34.3519 26.0983 34.2937 26.0261 34.2873 26.0153C34.2808 26.0046 34.2755 26.0167 34.2755 26.0424ZM4.55261 26.4108C4.54965 26.5917 4.50211 27.1633 4.4469 27.6811C4.39174 28.1989 4.34659 28.6386 4.34659 28.6584C4.34659 28.6781 4.22499 28.6879 4.07643 28.6801L3.80627 28.666L3.80716 28.4781C3.80768 28.3747 3.82328 28.1572 3.84184 27.9948C3.86688 27.7763 3.86054 27.6952 3.81745 27.6831C3.78546 27.6742 3.52672 27.6441 3.24246 27.6165C2.95821 27.5887 2.36874 27.5297 1.93254 27.4853L1.1394 27.4044L1.16675 27.0782C1.18183 26.8988 1.20043 26.746 1.20814 26.7386C1.21584 26.7311 1.793 26.786 2.49071 26.8605C3.18843 26.935 3.80458 26.9965 3.85993 26.9971C3.95399 26.998 3.96278 26.9672 3.99435 26.526L4.02813 26.054L4.29307 26.0679L4.55802 26.0819L4.55261 26.4108ZM10.9244 26.8571V27.6559H11.3942H11.8641V26.8571V26.0584H11.3942H10.9244V26.8571ZM12.5688 26.8571V27.6559H13.0387H13.5085V26.8571V26.0584H13.0387H12.5688V26.8571ZM14.2603 26.8571V27.6559H14.7301H15.1999V26.8571V26.0584H14.7301H14.2603V26.8571ZM15.9047 26.8571V27.6559H16.3745H16.8444V26.8571V26.0584H16.3745H15.9047V26.8571ZM17.6002 26.8571L17.5911 27.6559H18.0634H18.5358V26.8571V26.0584H18.0726H17.6094L17.6002 26.8571ZM19.2406 26.8571V27.6559H19.7104H20.1803V26.8571V26.0584H19.7104H19.2406V26.8571ZM20.979 26.8571V27.6559H21.4488H21.9187V26.8571V26.0584H21.4488H20.979V26.8571ZM22.6234 26.8571V27.6559H23.0933H23.5631V26.8571V26.0584H23.0933H22.6234V26.8571ZM36.6247 26.8571V27.6559H37.0946H37.5644V26.8571V26.0584H37.0946H36.6247V26.8571ZM38.2692 26.8571V27.6559H38.739H39.2089V26.8571V26.0584H38.739H38.2692V26.8571ZM39.9606 26.8571V27.6559H40.4304H40.9003V26.8571V26.0584H40.4304H39.9606V26.8571ZM41.605 26.8571V27.6559H42.0749H42.5447V26.8571V26.0584H42.0749H41.605V26.8571ZM43.3435 26.8571V27.6559H43.8133H44.2831V26.8571V26.0584H43.8133H43.3435V26.8571ZM44.9879 26.8554V27.6559H45.4589H45.9298L45.917 26.8689L45.9041 26.0819L45.446 26.0685L44.9879 26.055V26.8554ZM46.6793 26.8571V27.6559H47.1492H47.619V26.8571V26.0584H47.1492H46.6793V26.8571ZM48.3238 26.8571V27.6559H48.7936H49.2635V26.8571V26.0584H48.7936H48.3238V26.8571ZM9.95753 26.6307C10.1119 26.811 10.1256 26.8513 10.1256 27.124C10.1256 27.2873 10.1203 27.4208 10.1139 27.4206C10.1075 27.4204 9.96472 27.3783 9.79675 27.327C9.62879 27.2757 9.40152 27.2336 9.29167 27.2334L9.09199 27.233V27.5149V27.7968H8.7631H8.43421V27.5149V27.233L8.23453 27.2334C8.12468 27.2336 7.90263 27.2739 7.74101 27.3231L7.44722 27.4124L7.41809 27.2964C7.36889 27.1005 7.42974 26.8367 7.57116 26.6325L7.70596 26.4379L8.74769 26.4361L9.78942 26.4343L9.95753 26.6307ZM27.6429 26.6194C27.7757 26.7847 27.7917 26.8375 27.7917 27.1095V27.4143L27.4747 27.3236C27.3003 27.2738 27.0783 27.233 26.9814 27.233H26.805V27.5149V27.7968H26.4761H26.1473V27.5149V27.233H25.94C25.826 27.233 25.5988 27.275 25.4349 27.3264C25.2711 27.3777 25.1318 27.42 25.1253 27.4203C25.1189 27.4207 25.1136 27.2874 25.1136 27.1241C25.1136 26.8619 25.1313 26.8043 25.2646 26.6308L25.4156 26.4343H26.4549H27.4941L27.6429 26.6194ZM52.4075 26.6172C52.536 26.7795 52.5524 26.835 52.5524 27.1083V27.4164L52.3292 27.3438C52.2065 27.3038 51.9844 27.2599 51.8359 27.2464L51.5657 27.2217V27.5093V27.7968H51.2368H50.9079V27.5149V27.233L50.7082 27.2334C50.5984 27.2336 50.3711 27.2757 50.2032 27.327C50.0352 27.3783 49.8925 27.4204 49.886 27.4206C49.8795 27.4208 49.8743 27.2932 49.8743 27.1371C49.8743 26.8907 49.8945 26.8258 50.027 26.6456L50.1797 26.4379L51.2211 26.4361L52.2626 26.4343L52.4075 26.6172ZM56.095 27.3857C56.1077 27.4697 56.1299 27.6742 56.1443 27.84C56.1586 28.0059 56.1797 28.1509 56.1911 28.1624C56.2026 28.1738 56.8047 28.137 57.5292 28.0807C58.2538 28.0243 58.868 27.9914 58.8944 28.0077C58.9207 28.024 58.9422 28.1731 58.9422 28.339C58.9422 28.6143 58.9329 28.6426 58.8365 28.6622C58.7784 28.674 58.2128 28.718 57.5797 28.76C56.9466 28.802 56.3803 28.8462 56.3214 28.8582C56.2156 28.8797 56.2147 28.886 56.2461 29.3721L56.278 29.8641H55.9987H55.7196L55.6227 28.5838C55.5694 27.8797 55.5346 27.2877 55.5453 27.2683C55.5561 27.2488 55.679 27.233 55.8184 27.233C56.0684 27.233 56.0722 27.2352 56.095 27.3857ZM9.88217 27.3993L10.1256 27.4716V28.1839C10.1256 28.5948 10.1082 28.8774 10.0844 28.8516C10.0618 28.8271 9.92436 28.6515 9.77904 28.4615L9.51485 28.116V27.7215C9.51485 27.2775 9.50404 27.287 9.88217 27.3993ZM27.5568 27.3915L27.7682 27.4547L27.7792 28.1543C27.7881 28.7162 27.7789 28.8396 27.7323 28.7812C27.7004 28.7412 27.5738 28.5789 27.4511 28.4206L27.2279 28.1329V27.7299C27.2279 27.2829 27.22 27.291 27.5568 27.3915ZM34.6665 27.4019L34.8863 27.4768V28.1536C34.8863 28.5259 34.8705 28.8298 34.8511 28.8289C34.8317 28.8281 34.6956 28.6634 34.5486 28.463L34.2813 28.0985L34.2805 27.7128C34.2795 27.2735 34.2826 27.2711 34.6665 27.4019ZM52.3326 27.4019L52.5524 27.4768V28.163C52.5524 28.5404 52.5351 28.8292 52.5139 28.8046C52.4927 28.7801 52.3659 28.6177 52.232 28.4438L51.9886 28.1277V27.7273C51.9886 27.2783 51.9836 27.283 52.3326 27.4019ZM8.87159 28.0822C8.89438 28.1694 8.92788 28.1784 9.19033 28.1677C9.47289 28.1561 9.48849 28.1616 9.61821 28.3169L9.75282 28.4781L8.80478 28.4908C8.28335 28.4978 7.84691 28.4938 7.83493 28.4818C7.82295 28.4698 7.85922 28.3954 7.91546 28.3164C8.01164 28.1812 8.03602 28.1727 8.32436 28.1727C8.59142 28.1727 8.63413 28.1606 8.65551 28.0787C8.68779 27.9554 8.83903 27.9577 8.87159 28.0822ZM26.5837 28.0787C26.6051 28.1606 26.6478 28.1727 26.9149 28.1727C27.1997 28.1727 27.2284 28.1824 27.3187 28.3091C27.3721 28.3842 27.4158 28.4582 27.4158 28.4736C27.4158 28.489 26.9797 28.5016 26.4466 28.5016H25.4774L25.595 28.3489C25.7042 28.2069 25.7345 28.1952 26.0288 28.1822C26.2965 28.1704 26.3489 28.154 26.3692 28.0765C26.4005 27.9566 26.5522 27.9582 26.5837 28.0787ZM30.1075 28.0787C30.1289 28.1606 30.1716 28.1727 30.4387 28.1727C30.7235 28.1727 30.7522 28.1824 30.8425 28.3091C30.8959 28.3842 30.9396 28.4582 30.9396 28.4736C30.9396 28.489 30.5035 28.5016 29.9704 28.5016H29.0013L29.1188 28.3489C29.2281 28.2069 29.2584 28.1952 29.5526 28.1822C29.8203 28.1704 29.8727 28.154 29.893 28.0765C29.9243 27.9566 30.076 27.9582 30.1075 28.0787ZM33.6314 28.0787C33.6527 28.1606 33.6954 28.1727 33.9625 28.1727C34.2473 28.1727 34.276 28.1824 34.3663 28.3091C34.4197 28.3842 34.4635 28.4582 34.4635 28.4736C34.4635 28.489 34.0406 28.5016 33.5238 28.5016C33.0069 28.5016 32.5841 28.489 32.5841 28.4736C32.5841 28.4582 32.6278 28.3842 32.6812 28.3091C32.7715 28.1824 32.8002 28.1727 33.085 28.1727C33.3521 28.1727 33.3948 28.1606 33.4162 28.0787C33.4297 28.027 33.4781 27.9848 33.5238 27.9848C33.5694 27.9848 33.6178 28.027 33.6314 28.0787ZM51.3444 28.0787C51.3658 28.1606 51.4085 28.1727 51.6755 28.1727C51.9604 28.1727 51.9891 28.1824 52.0793 28.3091C52.1327 28.3842 52.1765 28.4582 52.1765 28.4736C52.1765 28.489 51.7416 28.5016 51.2101 28.5016H50.2437L50.3492 28.3489C50.4072 28.2649 50.4613 28.1875 50.4694 28.177C50.4776 28.1665 50.6235 28.1624 50.7937 28.1679C51.0709 28.1769 51.1059 28.1678 51.1286 28.0813C51.1609 27.9576 51.3122 27.9558 51.3444 28.0787ZM11.958 29.2298V30.287H11.3002H10.6425V29.2298V28.1727H11.3002H11.958V29.2298ZM13.5916 29.2416L13.6043 30.287H12.9456H12.2869V29.2285V28.1701L12.9329 28.1831L13.579 28.1962L13.5916 29.2416ZM15.2939 29.2298V30.287H14.6361H13.9783V29.2298V28.1727H14.6361H15.2939V29.2298ZM16.9384 29.2298V30.287H16.2806H15.6228V29.2298V28.1727H16.2806H16.9384V29.2298ZM18.6298 29.2298V30.287H17.9955H17.3612V29.2298V28.1727H17.9955H18.6298V29.2298ZM20.2742 29.2298V30.287H19.6417H19.0091L18.9956 29.2493C18.9882 28.6786 18.991 28.2029 19.0018 28.1922C19.0125 28.1815 19.3032 28.1727 19.6478 28.1727H20.2742V29.2298ZM22.0126 29.2298V30.287H21.3549H20.6971V29.2298V28.1727H21.3549H22.0126V29.2298ZM23.6462 29.2416L23.6589 30.287H23.0002H22.3415V29.2285V28.1701L22.9876 28.1831L23.6336 28.1962L23.6462 29.2416ZM37.6584 29.2298V30.287H37.0006H36.3428V29.2298V28.1727H37.0006H37.6584V29.2298ZM39.3028 29.2298V30.287H38.645H37.9873V29.2298V28.1727H38.645H39.3028V29.2298ZM40.9943 29.2312V30.2896L40.3598 30.2766C40.0109 30.2694 39.7255 30.2477 39.7255 30.2283C39.7256 30.2089 39.7257 29.7384 39.7257 29.1829V28.1727H40.36H40.9943V29.2312ZM42.6387 29.2298V30.287H42.0044H41.3701L41.3655 29.9698C41.363 29.7954 41.3524 29.3461 41.3421 28.9714C41.3317 28.5967 41.3331 28.2638 41.3452 28.2314C41.3613 28.1884 41.5374 28.1727 42.003 28.1727H42.6387V29.2298ZM44.3771 29.2298V30.287H43.7193H43.0616V29.2298V28.1727H43.7193H44.3771V29.2298ZM46.0107 29.2416L46.0233 30.287H45.3647H44.706V29.2285V28.1701L45.352 28.1831L45.9981 28.1962L46.0107 29.2416ZM47.713 29.2298V30.287H47.0552H46.3974V29.2298V28.1727H47.0552H47.713V29.2298ZM49.3574 29.2298V30.287H48.6997H48.0419V29.2298V28.1727H48.6997H49.3574V29.2298ZM3.37585 28.6436C3.79344 28.7726 4.15912 29.1021 4.3028 29.479C4.44756 29.8587 4.44901 30.4475 4.30609 30.812C4.04862 31.4685 3.31092 31.8517 2.47319 31.7642C1.65172 31.6783 1.16459 31.258 1.01048 30.5022C0.873847 29.8322 1.15636 29.1145 1.6854 28.7875C2.07937 28.5441 2.84305 28.479 3.37585 28.6436ZM9.9706 28.7754C10.1057 28.9525 10.1256 29.0146 10.1256 29.257C10.1256 29.41 10.1078 29.5352 10.086 29.5352C10.0642 29.5352 9.92347 29.493 9.77326 29.4413C9.62305 29.3896 9.40829 29.3473 9.29604 29.3473H9.09199V29.6292V29.9111H8.7631H8.43421V29.6292V29.3473H8.23016C8.11792 29.3473 7.904 29.3893 7.75478 29.4407C7.6056 29.492 7.46484 29.5225 7.44205 29.5083C7.41921 29.4942 7.40056 29.3707 7.40056 29.2338C7.40056 29.021 7.42476 28.9532 7.56782 28.7659L7.73514 28.5468L8.77532 28.5594L9.81555 28.5721L9.9706 28.7754ZM10.9244 29.3725V30.1964L11.3825 30.183L11.8406 30.1695L11.8534 29.359L11.8663 28.5486H11.3953H10.9244V29.3725ZM12.5688 29.3708V30.1964L13.0269 30.183L13.485 30.1695V29.3708V28.5721L13.0269 28.5586L12.5688 28.5452V29.3708ZM14.2603 29.3708V30.193H14.7301H15.1999V29.3708V28.5486H14.7301H14.2603V29.3708ZM15.9047 29.3708V30.193H16.3745H16.8444V29.3708V28.5486H16.3745H15.9047V29.3708ZM17.619 29.359L17.6254 30.1695L18.0806 30.183L18.5358 30.1964V29.3725V28.5486H18.0742H17.6127L17.619 29.359ZM19.2512 29.359L19.2641 30.1695L19.7222 30.183L20.1803 30.1964V29.3725V28.5486H19.7093H19.2384L19.2512 29.359ZM20.979 29.3725V30.1964L21.4371 30.183L21.8952 30.1695L21.9081 29.359L21.9209 28.5486H21.45H20.979V29.3725ZM22.6234 29.3725V30.1964L23.0815 30.183L23.5396 30.1695L23.5525 29.359L23.5653 28.5486H23.0944H22.6234V29.3725ZM27.6429 28.7337C27.7761 28.8994 27.7917 28.9514 27.7917 29.2271C27.7917 29.3966 27.7864 29.5351 27.78 29.5349C27.7735 29.5347 27.6308 29.4926 27.4628 29.4413C27.2948 29.39 27.0781 29.3479 26.9812 29.3477L26.805 29.3473V29.6292V29.9111H26.4785H26.1519L26.1379 29.641L26.1238 29.3708L25.9409 29.3558C25.8403 29.3476 25.6606 29.3718 25.5415 29.4097C25.0674 29.5603 25.1136 29.5771 25.1136 29.2545C25.1136 29.0046 25.1333 28.9407 25.2663 28.7599L25.419 28.5522L26.4565 28.5504L27.4941 28.5486L27.6429 28.7337ZM36.6247 29.3708V30.193H37.0946H37.5644V29.3708V28.5486H37.0946H36.6247V29.3708ZM38.2692 29.3725V30.1964L38.7273 30.183L39.1854 30.1695L39.1982 29.359L39.2111 28.5486H38.7401H38.2692V29.3725ZM39.9712 29.359L39.9841 30.1695L40.4422 30.183L40.9003 30.1964V29.3725V28.5486H40.4293H39.9584L39.9712 29.359ZM41.6157 29.359L41.6285 30.1695L42.0866 30.183L42.5447 30.1964V29.3725V28.5486H42.0738H41.6028L41.6157 29.359ZM43.3435 29.3725V30.1964L43.8016 30.183L44.2597 30.1695L44.2725 29.359L44.2854 28.5486H43.8144H43.3435V29.3725ZM44.9879 29.3691V30.193H45.4321H45.8763L45.9051 30.0399C45.9209 29.9557 45.9271 29.591 45.9189 29.2295L45.9041 28.5721L45.446 28.5586L44.9879 28.5452V29.3691ZM46.69 29.359L46.7028 30.1695H47.1492H47.5955L47.6084 29.359L47.6212 28.5486H47.1492H46.6771L46.69 29.359ZM48.3344 29.359L48.3473 30.1695L48.8054 30.183L49.2635 30.1964V29.3725V28.5486H48.7925H48.3216L48.3344 29.359ZM52.4036 28.7337C52.5367 28.8994 52.5524 28.9514 52.5524 29.2271C52.5524 29.3966 52.5471 29.535 52.5406 29.5346C52.5341 29.5343 52.3948 29.492 52.231 29.4407C52.0672 29.3893 51.8505 29.3473 51.7494 29.3473H51.5657V29.6292V29.9111H51.2368H50.9079V29.6292V29.3473H50.7039C50.5916 29.3473 50.3769 29.3896 50.2266 29.4413C50.0764 29.493 49.9357 29.5352 49.9139 29.5352C49.8921 29.5352 49.8743 29.4075 49.8743 29.2514C49.8743 29.005 49.8945 28.94 50.027 28.7599L50.1797 28.5522L51.2172 28.5504L52.2547 28.5486L52.4036 28.7337ZM2.21952 29.3157C1.98357 29.3891 1.74733 29.5846 1.65209 29.7853C1.56367 29.9717 1.55075 30.312 1.62465 30.5071C1.88556 31.1958 3.23306 31.2887 3.70577 30.6506C3.8556 30.4484 3.86603 29.9932 3.72706 29.7242C3.56487 29.4103 3.23598 29.2521 2.75552 29.257C2.55818 29.2589 2.31701 29.2854 2.21952 29.3157ZM9.95871 29.5546L10.1256 29.6244V30.2846C10.1256 30.6477 10.1098 30.9436 10.0904 30.9422C10.071 30.9408 9.94607 30.7965 9.81268 30.6217C9.57161 30.3057 9.57001 30.3013 9.5359 29.8654L9.5016 29.4269L9.64669 29.4559C9.72647 29.4719 9.8669 29.5163 9.95871 29.5546ZM27.5482 29.5136L27.7917 29.5858V30.2653C27.7917 30.639 27.7837 30.9448 27.7739 30.9448C27.7641 30.9448 27.6373 30.7869 27.492 30.5939L27.2279 30.243V29.8421C27.2279 29.6216 27.2452 29.4413 27.2663 29.4413C27.2875 29.4413 27.4144 29.4738 27.5482 29.5136ZM31.1117 29.5203L31.3625 29.5994V30.2721C31.3625 30.642 31.3456 30.9448 31.3249 30.9448C31.3042 30.9448 31.2583 30.9184 31.2229 30.886C31.1875 30.8538 31.2044 30.8883 31.2605 30.9629C31.3385 31.0665 31.3625 31.164 31.3625 31.3777V31.657L31.2098 31.6283L31.0571 31.5996L31.2098 31.6693L31.3625 31.7389V32.2555V32.7721L30.1879 32.7755C29.5419 32.7773 29.0133 32.7665 29.0133 32.7514C29.0133 32.7363 29.0686 32.6513 29.1363 32.5626C29.2555 32.4064 29.2696 32.4013 29.5827 32.4013C29.8746 32.4013 29.906 32.3922 29.906 32.3073C29.906 32.2447 29.9373 32.2133 30 32.2133C30.0626 32.2133 30.0939 32.2447 30.0939 32.3073C30.0939 32.3919 30.1253 32.4013 30.4076 32.4013C30.702 32.4013 30.7299 32.4107 30.859 32.554L30.9967 32.7067L30.8742 32.5336C30.765 32.3793 30.7517 32.3165 30.7517 31.9543V31.5481L30.9044 31.5749L31.0571 31.6017L30.8927 31.5352C30.8022 31.4987 30.6383 31.4671 30.5285 31.4652L30.3288 31.4616V31.7435V32.0254H30.0023H29.6758L29.6617 31.7552C29.6478 31.4893 29.6453 31.4848 29.4977 31.4706C29.4153 31.4626 29.2069 31.4996 29.0347 31.5528C28.8624 31.606 28.7026 31.6495 28.6795 31.6495C28.6563 31.6495 28.6374 31.5257 28.6374 31.3744C28.6374 31.1316 28.657 31.0735 28.804 30.8811L28.9706 30.6629H29.9867C30.8861 30.6629 31.0138 30.6723 31.0996 30.7451C31.2121 30.8406 31.1786 30.788 30.9246 30.4701C30.7554 30.2585 30.7517 30.2451 30.7517 29.8475C30.7517 29.5702 30.769 29.4413 30.8063 29.4413C30.8363 29.4413 30.9737 29.4768 31.1117 29.5203ZM34.6355 29.5203L34.8863 29.5994V30.2721C34.8863 30.642 34.8705 30.9442 34.8511 30.9436C34.8317 30.943 34.6935 30.7805 34.544 30.5826L34.2721 30.2227L34.2798 29.832C34.2844 29.5991 34.3072 29.4413 34.3361 29.4413C34.3629 29.4413 34.4976 29.4768 34.6355 29.5203ZM52.3326 29.5162L52.5524 29.5911L52.5507 30.2797L52.549 30.9683L52.4297 30.8273C52.3641 30.7498 52.2564 30.6071 52.1903 30.5102C52.1241 30.4133 52.0509 30.334 52.0275 30.334C52.0041 30.334 52.028 30.3803 52.0807 30.4368C52.1334 30.4933 52.1765 30.5568 52.1765 30.5778C52.1765 30.5987 51.7536 30.6159 51.2368 30.6159C50.72 30.6159 50.2971 30.5976 50.2971 30.5752C50.2971 30.5529 50.341 30.4789 50.3945 30.4108C50.4829 30.2983 50.5217 30.287 50.8174 30.287C51.1115 30.287 51.1428 30.278 51.1428 30.193C51.1428 30.1304 51.1742 30.0991 51.2368 30.0991C51.2994 30.0991 51.3308 30.1304 51.3308 30.193C51.3308 30.2781 51.3621 30.287 51.6597 30.287H51.9886V29.8641C51.9886 29.3902 51.9821 29.3967 52.3326 29.5162ZM56.2563 30.7988L56.2372 31.6865L56.4452 31.715C56.5595 31.7307 56.7241 31.7435 56.811 31.7435H56.9689L56.9693 31.1444C56.9695 30.8149 56.9824 30.4397 56.9978 30.3105L57.026 30.0756L57.3015 30.0914L57.5771 30.1073L57.5475 30.9254L57.5179 31.7435H57.9717H58.4254L58.4256 31.3559C58.4257 31.1427 58.4395 30.7304 58.4563 30.4397L58.4867 29.9111H58.7352C58.8718 29.9111 58.9949 29.9293 59.0087 29.9516C59.0224 29.9739 59.0203 30.5466 59.0039 31.2243L58.974 32.4565L57.3489 32.4235C56.4551 32.4054 55.7055 32.3736 55.6832 32.3529C55.6606 32.332 55.6579 31.7812 55.6771 31.1132L55.7118 29.9111H55.9936H56.2754L56.2563 30.7988ZM8.85707 30.193C8.85707 30.278 8.88841 30.287 9.18277 30.287C9.48863 30.287 9.51438 30.2953 9.60562 30.4234C9.65904 30.4985 9.70279 30.5725 9.70279 30.5879C9.70279 30.6033 9.27993 30.6159 8.7631 30.6159C8.24628 30.6159 7.82342 30.6033 7.82342 30.5879C7.82342 30.5725 7.86716 30.4985 7.92058 30.4234C8.01182 30.2953 8.03757 30.287 8.34344 30.287C8.6378 30.287 8.66913 30.278 8.66913 30.193C8.66913 30.1304 8.70047 30.0991 8.7631 30.0991C8.82573 30.0991 8.85707 30.1304 8.85707 30.193ZM26.5701 30.193C26.5701 30.2775 26.6014 30.287 26.8818 30.287C27.1635 30.287 27.2041 30.2994 27.3046 30.4162C27.3657 30.4873 27.4157 30.5612 27.4158 30.5806C27.4158 30.6 26.9797 30.6159 26.4466 30.6159H25.4774L25.595 30.4632C25.7042 30.3211 25.7345 30.3095 26.0288 30.2965C26.2965 30.2846 26.3489 30.2683 26.3692 30.1908C26.4015 30.0671 26.5701 30.069 26.5701 30.193ZM30.0939 30.193C30.0939 30.2778 30.1253 30.287 30.414 30.287C30.7141 30.287 30.7404 30.2956 30.8368 30.4261C30.8934 30.5025 30.9396 30.5765 30.9396 30.5905C30.9396 30.6045 30.5168 30.6159 30 30.6159C29.4831 30.6159 29.0603 30.5976 29.0603 30.5752C29.0603 30.5529 29.1041 30.4789 29.1577 30.4108C29.2461 30.2983 29.2849 30.287 29.5805 30.287C29.8746 30.287 29.906 30.278 29.906 30.193C29.906 30.1304 29.9373 30.0991 30 30.0991C30.0626 30.0991 30.0939 30.1304 30.0939 30.193ZM33.6177 30.193C33.6177 30.278 33.6491 30.287 33.9432 30.287C34.2389 30.287 34.2776 30.2983 34.3661 30.4108C34.4196 30.4789 34.4635 30.5529 34.4635 30.5752C34.4635 30.5976 34.0406 30.6159 33.5238 30.6159C33.0069 30.6159 32.5841 30.6033 32.5841 30.5879C32.5841 30.5725 32.6278 30.4985 32.6812 30.4234C32.7725 30.2953 32.7982 30.287 33.1041 30.287C33.3985 30.287 33.4298 30.278 33.4298 30.193C33.4298 30.1304 33.4611 30.0991 33.5238 30.0991C33.5864 30.0991 33.6177 30.1304 33.6177 30.193ZM9.95904 30.8811C10.1061 31.0735 10.1256 31.1316 10.1256 31.3744C10.1256 31.5257 10.1131 31.6495 10.0977 31.6495C10.0823 31.6495 9.92568 31.6057 9.74954 31.5523C9.57344 31.4988 9.35872 31.4618 9.27241 31.47C9.11633 31.485 9.11539 31.4865 9.10139 31.7552L9.08729 32.0254H8.76075H8.43421V31.7435V31.4616L8.25802 31.4622C8.16114 31.4625 7.94769 31.5049 7.78381 31.5562C7.61988 31.6076 7.46422 31.6364 7.43796 31.6201C7.41071 31.6033 7.39845 31.4757 7.40944 31.3236C7.42509 31.1071 7.45873 31.0193 7.58695 30.8597L7.74519 30.6629H8.76883H9.79243L9.95904 30.8811ZM11.9472 31.7318L11.9598 32.7771H11.3011H10.6425V31.7513C10.6425 31.1871 10.6571 30.7108 10.6751 30.6929C10.693 30.6749 10.9838 30.6661 11.3211 30.6733L11.9345 30.6864L11.9472 31.7318ZM13.5916 31.7318L13.6043 32.7771H12.9456H12.2869V31.7187V30.6602L12.9329 30.6733L13.579 30.6864L13.5916 31.7318ZM15.2831 31.7318L15.2957 32.7771H14.637H13.9783V31.7513C13.9783 31.1871 13.993 30.7108 14.011 30.6929C14.0289 30.6749 14.3196 30.6661 14.657 30.6733L15.2704 30.6864L15.2831 31.7318ZM16.9384 31.72V32.7771H16.2806H15.6228V31.7513C15.6228 31.1871 15.6369 30.7114 15.6541 30.6942C15.6713 30.677 15.9673 30.6629 16.3119 30.6629H16.9384V31.72ZM18.6298 31.72V32.7771H17.9955H17.3612V31.72V30.6629H17.9955H18.6298V31.72ZM20.2742 31.72V32.7771H19.6438C19.2694 32.7771 19.0071 32.7583 18.9978 32.7306C18.9892 32.705 18.9883 32.2293 18.9957 31.6734L19.0092 30.6629H19.6417H20.2742V31.72ZM22.0018 31.7318L22.0144 32.7771H21.3558H20.6971V31.7187V30.6602L21.3431 30.6733L21.9892 30.6864L22.0018 31.7318ZM23.6462 31.7318L23.6589 32.7771H23.0002H22.3415V31.7513C22.3415 31.1871 22.3562 30.7108 22.3741 30.6929C22.3921 30.6749 22.6828 30.6661 23.0202 30.6733L23.6336 30.6864L23.6462 31.7318ZM27.6407 30.8593C27.7742 31.033 27.7917 31.0904 27.7917 31.3536V31.6513L27.6625 31.6198C27.5914 31.6024 27.4513 31.5597 27.3512 31.5249C27.2511 31.4901 27.0872 31.4616 26.987 31.4616H26.805V31.7435V32.0254H26.4785H26.1519L26.1379 31.7552C26.124 31.4892 26.1215 31.4848 25.9737 31.4706C25.8912 31.4626 25.6775 31.4996 25.4988 31.5528C25.3201 31.606 25.1604 31.6495 25.1438 31.6495C25.1272 31.6495 25.1136 31.5218 25.1136 31.3657C25.1136 31.1193 25.1338 31.0543 25.2663 30.8741L25.419 30.6665L26.4543 30.6647L27.4897 30.6629L27.6407 30.8593ZM37.6475 31.7318L37.6602 32.7771H37.0015H36.3428V31.7513C36.3428 31.1871 36.3575 30.7108 36.3754 30.6929C36.3934 30.6749 36.6841 30.6661 37.0215 30.6733L37.6349 30.6864L37.6475 31.7318ZM39.3028 31.72V32.7771H38.645H37.9873V31.7513C37.9873 31.1871 38.0014 30.7114 38.0186 30.6942C38.0358 30.677 38.3318 30.6629 38.6764 30.6629H39.3028V31.72ZM40.9834 31.7318L40.996 32.7771H40.3609H39.7257V31.7186V30.6601L40.3482 30.6732L40.9708 30.6864L40.9834 31.7318ZM42.6387 31.72V32.7771H41.9851H41.3314L41.3521 31.7552C41.3636 31.1932 41.3722 30.7175 41.3715 30.6981C41.3707 30.6787 41.6556 30.6629 42.0044 30.6629H42.6387V31.72ZM44.3663 31.7318L44.3789 32.7771H43.7202H43.0616V31.7187V30.6602L43.7076 30.6733L44.3536 30.6864L44.3663 31.7318ZM45.9981 31.72V32.7537L45.352 32.7667L44.706 32.7798V31.7527C44.706 31.1877 44.7207 30.7108 44.7386 30.6929C44.7566 30.6749 45.0473 30.6661 45.3846 30.6733L45.9981 30.6864V31.72ZM47.713 31.72V32.7771H47.0552H46.3974V31.7513C46.3974 31.1871 46.4115 30.7114 46.4288 30.6942C46.446 30.677 46.742 30.6629 47.0866 30.6629H47.713V31.72ZM49.3466 31.7318L49.3592 32.7771H48.7006H48.0419V31.7513C48.0419 31.1871 48.0565 30.7108 48.0745 30.6929C48.0924 30.6749 48.3832 30.6661 48.7205 30.6733L49.3339 30.6864L49.3466 31.7318ZM52.4073 30.8601C52.5333 31.0313 52.5524 31.0963 52.5524 31.3543V31.6513L52.4232 31.6198C52.3521 31.6024 52.212 31.5597 52.1118 31.5249C52.0117 31.4901 51.8478 31.4616 51.7477 31.4616H51.5657V31.7435V32.0254H51.2392H50.9126L50.8985 31.7552C50.8845 31.4865 50.8836 31.485 50.7275 31.47C50.6412 31.4618 50.4265 31.4988 50.2504 31.5523C50.0742 31.6057 49.9176 31.6495 49.9022 31.6495C49.8869 31.6495 49.8743 31.5257 49.8743 31.3744C49.8743 31.1316 49.8939 31.0735 50.0409 30.8811L50.2075 30.6629H51.2349H52.2623L52.4073 30.8601ZM10.9244 31.861V32.6832H11.3942H11.8641V31.861V31.0387H11.3942H10.9244V31.861ZM12.5688 31.8593V32.6832H13.0398H13.5107L13.4979 31.8727L13.485 31.0622L13.0269 31.0488L12.5688 31.0354V31.8593ZM14.2603 31.861V32.6832H14.7301H15.1999V31.861V31.0387H14.7301H14.2603V31.861ZM15.9047 31.861V32.6832H16.3745H16.8444V31.861V31.0387H16.3745H15.9047V31.861ZM17.6275 31.0701C17.6102 31.0873 17.5961 31.4573 17.5961 31.8923V32.6832H18.066H18.5358V31.861V31.0387H18.0973C17.8561 31.0387 17.6447 31.0528 17.6275 31.0701ZM19.2613 31.0993C19.2486 31.1327 19.2439 31.4974 19.2511 31.9098L19.2641 32.6597L19.7222 32.6731L20.1803 32.6866V31.8626V31.0387H19.7325C19.4101 31.0387 19.2781 31.0557 19.2613 31.0993ZM20.979 31.861V32.6832H21.4488H21.9187V31.861V31.0387H21.4488H20.979V31.861ZM22.6234 31.861V32.6866L23.0815 32.6731L23.5396 32.6597V31.861V31.0622L23.0815 31.0488L22.6234 31.0354V31.861ZM36.6247 31.861V32.6832H37.0946H37.5644V31.861V31.0387H37.0946H36.6247V31.861ZM38.2692 31.861V32.6832H38.739H39.2089V31.861V31.0387H38.739H38.2692V31.861ZM39.9814 31.0993C39.9686 31.1327 39.9639 31.4974 39.9711 31.9098L39.9841 32.6597L40.4422 32.6731L40.9003 32.6866V31.8626V31.0387H40.4525C40.1301 31.0387 39.9981 31.0557 39.9814 31.0993ZM41.6364 31.0701C41.6191 31.0873 41.605 31.4573 41.605 31.8923V32.6832H42.0749H42.5447V31.861V31.0387H42.1062C41.865 31.0387 41.6536 31.0528 41.6364 31.0701ZM43.3435 31.861V32.6832H43.8133H44.2831V31.861V31.0387H43.8133H43.3435V31.861ZM44.9879 31.861V32.6866L45.446 32.6731L45.9041 32.6597V31.861V31.0622L45.446 31.0488L44.9879 31.0354V31.861ZM46.6793 31.861V32.6832H47.1492H47.619V31.861V31.0387H47.1492H46.6793V31.861ZM48.3238 31.861V32.6832H48.7936H49.2635V31.861V31.0387H48.7936H48.3238V31.861ZM9.97036 31.6738L10.1256 31.7387V32.2579V32.7771H9.98803C9.83622 32.7771 9.75813 32.7152 9.61925 32.4848C9.5436 32.3592 9.52885 32.2614 9.53947 31.9549C9.54661 31.7482 9.55455 31.5715 9.55713 31.5622C9.56399 31.5376 9.79121 31.599 9.97036 31.6738ZM27.5409 31.6346L27.7917 31.7137V32.2454V32.7771H27.6598C27.5567 32.7771 27.4951 32.7306 27.3779 32.5644C27.2378 32.3656 27.2279 32.3253 27.2279 31.9536C27.2279 31.7347 27.2419 31.5556 27.259 31.5556C27.2761 31.5556 27.403 31.5911 27.5409 31.6346ZM52.2985 31.6294L52.5524 31.7032V32.2402V32.7771H52.4205C52.3174 32.7771 52.2557 32.7306 52.1386 32.5644C51.9984 32.3656 51.9886 32.3253 51.9886 31.9536C51.9886 31.7347 52.0011 31.5556 52.0166 31.5556C52.032 31.5556 52.1588 31.5888 52.2985 31.6294ZM3.95982 32.0511C4.30928 32.1971 4.49055 32.4641 4.58212 32.9676C4.67985 33.5052 4.54364 34.0232 4.24647 34.244C4.06121 34.3817 3.77996 34.4854 3.73114 34.434C3.71235 34.4142 3.68294 34.2607 3.66574 34.0927L3.6344 33.7873L3.78405 33.7224C4.06868 33.599 4.13544 33.1366 3.91983 32.782C3.85241 32.6712 3.79744 32.6362 3.6906 32.6362C3.48856 32.6362 3.42697 32.7625 3.31294 33.4104C3.19801 34.0635 3.10367 34.3052 2.89511 34.4807C2.5821 34.744 1.99339 34.7721 1.68691 34.5383C1.38142 34.3054 1.23553 33.9844 1.17238 33.4065C1.11055 32.8404 1.38753 32.3103 1.84821 32.1128C2.14435 31.9859 2.17132 31.9966 2.2284 32.2626C2.30442 32.6171 2.29507 32.6652 2.13739 32.7305C2.05935 32.7629 1.94307 32.8517 1.87898 32.9278C1.65411 33.195 1.75598 33.8261 2.04836 33.9773C2.35319 34.1349 2.52468 33.9815 2.60648 33.478C2.69881 32.9093 2.75707 32.6692 2.84488 32.4952C3.06228 32.0646 3.53832 31.875 3.95982 32.0511ZM8.85707 32.3073C8.85707 32.3923 8.88841 32.4013 9.18277 32.4013C9.48863 32.4013 9.51438 32.4096 9.60562 32.5377C9.65904 32.6128 9.70279 32.6868 9.70279 32.7022C9.70279 32.7176 9.27993 32.7302 8.7631 32.7302C8.24628 32.7302 7.82342 32.7188 7.82342 32.7048C7.82342 32.6908 7.8697 32.6168 7.92622 32.5404C8.02235 32.4103 8.04951 32.4013 8.34358 32.4013C8.61867 32.4013 8.66124 32.3895 8.68276 32.3073C8.69624 32.2556 8.74102 32.2133 8.78218 32.2133C8.82573 32.2133 8.85707 32.2527 8.85707 32.3073ZM26.5565 32.3073C26.5779 32.3892 26.621 32.4014 26.8927 32.4023C27.2022 32.4033 27.2053 32.4046 27.3367 32.5902L27.4689 32.7771H26.4792C25.9348 32.7771 25.4895 32.7633 25.4895 32.7463C25.4895 32.7294 25.5434 32.6448 25.6093 32.5584C25.725 32.4068 25.7407 32.4013 26.0557 32.4013C26.3508 32.4013 26.3822 32.3923 26.3822 32.3073C26.3822 32.2527 26.4135 32.2133 26.4571 32.2133C26.4982 32.2133 26.543 32.2556 26.5565 32.3073ZM33.6177 32.3073C33.6177 32.3922 33.6491 32.4013 33.941 32.4013C34.2541 32.4013 34.2682 32.4064 34.3874 32.5626C34.4551 32.6513 34.5104 32.7359 34.5104 32.7505C34.5104 32.7652 34.0664 32.7771 33.5238 32.7771C32.9811 32.7771 32.5371 32.7654 32.5371 32.7512C32.5371 32.7368 32.5952 32.6523 32.6663 32.5632C32.7906 32.4074 32.8074 32.4013 33.1127 32.4013C33.3985 32.4013 33.4298 32.392 33.4298 32.3073C33.4298 32.2447 33.4611 32.2133 33.5238 32.2133C33.5864 32.2133 33.6177 32.2447 33.6177 32.3073ZM51.3171 32.3073C51.3385 32.389 51.3812 32.4013 51.6439 32.4013C51.9146 32.4013 51.9579 32.4147 52.0598 32.5305C52.1224 32.6016 52.1742 32.6755 52.175 32.6949C52.1758 32.7143 51.7536 32.7302 51.2368 32.7302C50.72 32.7302 50.2971 32.7119 50.2971 32.6895C50.2971 32.6672 50.341 32.5932 50.3945 32.5251C50.4829 32.4126 50.5217 32.4013 50.8174 32.4013C51.1115 32.4013 51.1428 32.3923 51.1428 32.3073C51.1428 32.2527 51.1742 32.2133 51.2177 32.2133C51.2589 32.2133 51.3037 32.2556 51.3171 32.3073ZM56.1195 32.5255C56.1304 32.535 56.1128 32.7459 56.0803 32.9942C56.0478 33.2426 56.0389 33.4611 56.0604 33.4799C56.082 33.4987 56.6811 33.5935 57.3917 33.6905C58.1024 33.7875 58.6977 33.8807 58.7148 33.8975C58.7439 33.9265 58.6787 34.4478 58.6375 34.5144C58.6269 34.5315 58.0325 34.4637 57.3163 34.3639C56.6002 34.264 55.989 34.1921 55.958 34.204C55.9258 34.2163 55.8774 34.4137 55.8455 34.6627C55.8147 34.9031 55.7829 35.1063 55.775 35.1143C55.7491 35.1403 55.2305 35.0672 55.2308 35.0377C55.231 35.0219 55.2731 34.7023 55.3243 34.3276C55.3756 33.9529 55.4534 33.3771 55.4973 33.0479L55.577 32.4495L55.8383 32.4789C55.9821 32.4951 56.1086 32.5161 56.1195 32.5255ZM25.262 33.8108C25.369 33.8883 25.4957 33.9518 25.5435 33.9518C25.6263 33.9518 25.6304 34.025 25.6304 35.5022V37.0527H25.325H25.0196V35.3613C25.0196 34.431 25.0304 33.6698 25.0435 33.6698C25.0567 33.6698 25.155 33.7333 25.262 33.8108ZM35.0742 35.3875V37.0527H34.7688H34.4635V35.5022C34.4635 34.0246 34.4675 33.9518 34.5504 33.9518C34.5983 33.9518 34.7198 33.8911 34.8206 33.817C34.9214 33.7429 35.0196 33.6913 35.039 33.7023C35.0584 33.7134 35.0742 34.4717 35.0742 35.3875ZM10.0317 35.2564V36.6784L8.79834 36.6659L7.56501 36.6533L7.55086 35.5022C7.54311 34.8691 7.54974 34.2413 7.56566 34.1071C7.59409 33.8672 7.59752 33.8628 7.76774 33.8432C7.86298 33.8323 8.41128 33.8258 8.98628 33.8288L10.0317 33.8343V35.2564ZM12.8506 35.2556L12.8507 36.6768H11.6291H10.4075V35.2535V33.83L11.629 33.8322L12.8504 33.8343L12.8506 35.2556ZM15.6933 35.2438V36.6533L14.4599 36.6659L13.2266 36.6784V35.272C13.2266 34.1913 13.2402 33.8599 13.2853 33.841C13.3177 33.8275 13.8726 33.8204 14.5187 33.8254L15.6933 33.8343V35.2438ZM18.5123 35.2469V36.6533H17.2907H16.0691L16.0567 35.2566L16.0442 33.8599L16.9259 33.8471C17.4108 33.84 17.9661 33.8357 18.1599 33.8373L18.5123 33.8404V35.2469ZM20.5209 33.851L21.3549 33.8578V35.2681V36.6784L20.1215 36.6659L18.8882 36.6533L18.8757 35.2914C18.8688 34.5423 18.8723 33.9059 18.8833 33.8771C18.8962 33.8435 19.0425 33.8283 19.2951 33.8346C19.5106 33.8399 20.0622 33.8473 20.5209 33.851ZM24.1738 35.2556L24.1739 36.6768H22.9523H21.7307V35.2707C21.7307 33.9708 21.7369 33.8631 21.813 33.8441C21.8582 33.8328 22.4078 33.826 23.0344 33.8289L24.1736 33.8343L24.1738 35.2556ZM38.3631 35.2422V36.6768H37.1416H35.92V35.2752C35.92 34.5042 35.9289 33.8646 35.9399 33.8539C35.9509 33.8431 36.5006 33.8283 37.1615 33.8209L38.3631 33.8077V35.2422ZM41.2023 33.94C41.2005 33.9981 41.1952 34.6377 41.1906 35.3613L41.1822 36.6768H39.9606H38.739V35.2706V33.8643L38.8447 33.8493C38.9028 33.8411 39.4579 33.8343 40.0781 33.8343H41.2057L41.2023 33.94ZM43.9902 33.8578C44.037 33.8578 44.047 34.1533 44.0372 35.2556L44.0247 36.6533H42.8031H41.5816L41.5691 35.2914C41.5622 34.5423 41.5648 33.908 41.5748 33.8818C41.5866 33.8511 42.0057 33.8385 42.7619 33.8461C43.4048 33.8526 43.9575 33.8579 43.9902 33.8578ZM46.8327 33.8508C46.8525 33.8546 46.8631 34.4868 46.8562 35.2556L46.8438 36.6533H45.6222H44.4006L44.3881 35.2914C44.3813 34.5423 44.385 33.9051 44.3964 33.8753C44.4115 33.836 44.7436 33.8243 45.607 33.8325C46.2614 33.8388 46.813 33.847 46.8327 33.8508ZM49.6863 35.2535V36.6784L48.453 36.6659L47.2197 36.6533L47.2174 35.2908C47.2161 34.5414 47.2217 33.9071 47.2299 33.8813C47.2392 33.8516 47.6952 33.8333 48.4655 33.8315L49.6863 33.8288V35.2535ZM52.1647 33.8495L52.5054 33.8578V35.2673V36.6768H51.2838H50.0622V35.2504V33.824L50.9432 33.8326C51.4277 33.8373 51.9774 33.8449 52.1647 33.8495ZM27.1104 34.0927L27.2455 34.2337H27.0495C26.8979 34.2337 26.8188 34.202 26.7001 34.0941L26.5466 33.9545L26.761 33.9531C26.9388 33.952 26.9984 33.9758 27.1104 34.0927ZM27.73 34.0539C27.8813 34.1961 27.8666 34.2337 27.6595 34.2337C27.5218 34.2337 27.4492 34.2011 27.3453 34.0927L27.2103 33.9518H27.4157C27.562 33.9518 27.6525 33.9812 27.73 34.0539ZM28.4383 35.5932C28.4457 36.5584 28.4329 37.229 28.4066 37.2554C28.3822 37.2797 28.308 37.2859 28.2415 37.2692L28.1206 37.2389V35.7128C28.1206 34.8589 28.1023 34.1867 28.079 34.1867C28.0561 34.1867 28.0021 34.1327 27.9589 34.0668L27.8803 33.9469L28.1531 33.9611L28.426 33.9752L28.4383 35.5932ZM29.0057 34.0714C29.0786 34.2314 29.0778 34.2337 28.9428 34.2337C28.8436 34.2337 28.8253 34.2117 28.8253 34.0927C28.8253 33.9177 28.9301 33.9054 29.0057 34.0714ZM29.6241 34.0927C29.6241 34.2176 29.6082 34.2337 29.4848 34.2337C29.3951 34.2337 29.3281 34.2012 29.2968 34.1428C29.2143 33.9886 29.2412 33.9518 29.4361 33.9518C29.6137 33.9518 29.6241 33.9596 29.6241 34.0927ZM30.1979 34.0927C30.1804 34.212 30.1564 34.2337 30.0416 34.2337C29.9222 34.2337 29.906 34.2167 29.906 34.0927C29.906 33.9643 29.9199 33.9518 30.0623 33.9518C30.2092 33.9518 30.2174 33.9602 30.1979 34.0927ZM30.8457 33.9722C30.8457 33.9834 30.825 34.0468 30.7999 34.1131C30.7646 34.2058 30.7212 34.2337 30.6119 34.2337C30.4853 34.2337 30.4698 34.2182 30.4698 34.0927C30.4698 33.9596 30.4802 33.9518 30.6577 33.9518C30.7611 33.9518 30.8457 33.961 30.8457 33.9722ZM31.5974 35.6213V37.2908L31.4682 37.2735L31.339 37.2562L31.3266 35.745L31.3142 34.2337H31.1739C31.0156 34.2337 31.0171 34.2363 31.0794 34.0723C31.1202 33.965 31.1512 33.9518 31.3613 33.9518H31.5974V35.6213ZM32.1334 34.0692C32.0911 34.1338 32.0378 34.1867 32.0149 34.1867C31.992 34.1867 31.9733 34.1338 31.9733 34.0692C31.9733 33.975 31.9967 33.9518 32.0918 33.9518C32.2075 33.9518 32.2085 33.9546 32.1334 34.0692ZM32.7485 34.0927C32.6447 34.2011 32.5721 34.2337 32.4343 34.2337C32.2276 34.2337 32.217 34.2099 32.3573 34.0605C32.4349 33.978 32.5107 33.9518 32.6715 33.9518H32.8836L32.7485 34.0927ZM33.3846 34.0946C33.2635 34.1981 33.1741 34.2337 33.0352 34.2337H32.8484L32.9835 34.0927C33.0957 33.9755 33.1547 33.9521 33.3329 33.9537L33.5473 33.9556L33.3846 34.0946ZM26.5701 34.7786C26.5701 34.9059 26.605 34.9802 26.7111 35.0794C26.7886 35.1518 26.852 35.2237 26.852 35.2392C26.852 35.2547 26.704 35.2673 26.5231 35.2673H26.1942V34.9384V34.6095H26.3822C26.5666 34.6095 26.5701 34.6127 26.5701 34.7786ZM27.5568 34.9384V35.2673H27.2279C26.9668 35.2673 26.899 35.2527 26.899 35.1968C26.899 35.1581 26.9295 35.1264 26.9668 35.1264C27.0691 35.1264 27.1809 34.9369 27.1809 34.7635C27.1809 34.6152 27.1878 34.6095 27.3688 34.6095H27.5568V34.9384ZM29.765 34.8219C29.765 35.003 29.7824 35.0423 29.8825 35.0879C29.9471 35.1173 30 35.1698 30 35.2044C30 35.251 29.9146 35.2673 29.6711 35.2673H29.3422V34.9384V34.6095H29.5536H29.765V34.8219ZM30.7517 34.9384V35.2673H30.4228C30.1618 35.2673 30.0939 35.2527 30.0939 35.1968C30.0939 35.1581 30.1136 35.1264 30.1376 35.1264C30.2378 35.1264 30.3288 34.9682 30.3288 34.7941V34.6095H30.5403H30.7517V34.9384ZM32.913 34.7786C32.913 34.9059 32.9478 34.9802 33.0539 35.0794C33.1315 35.1518 33.1949 35.2237 33.1949 35.2392C33.1949 35.2547 33.0469 35.2673 32.866 35.2673H32.5371V34.9384V34.6095H32.725C32.9095 34.6095 32.913 34.6127 32.913 34.7786ZM33.8996 34.9384V35.2673H33.5708C33.3221 35.2673 33.2419 35.2515 33.2419 35.2023C33.2419 35.1666 33.2839 35.1263 33.3353 35.1129C33.4447 35.0843 33.5225 34.9084 33.5033 34.7331C33.4905 34.6165 33.5013 34.6095 33.6947 34.6095H33.8996V34.9384ZM4.81648 35.0562C4.90288 35.4722 4.91693 35.4596 4.23491 35.5797C3.90221 35.6383 3.62449 35.6924 3.61772 35.6999C3.58126 35.7403 3.84898 36.9587 3.89427 36.9586C3.9234 36.9585 4.16467 36.9162 4.43046 36.8646C5.15467 36.724 5.12422 36.7155 5.19268 37.0783C5.22463 37.2475 5.24286 37.3922 5.23327 37.4C5.20184 37.4254 1.99249 38.0033 1.97953 37.9859C1.95674 37.9553 1.8584 37.3639 1.87362 37.3488C1.88175 37.3406 2.19307 37.2786 2.56542 37.2109C2.93782 37.1432 3.25078 37.0804 3.26093 37.0714C3.27728 37.0568 3.09639 35.9823 3.05523 35.8495C3.04409 35.8136 2.82176 35.8381 2.34229 35.9281C1.95904 35.9999 1.63903 36.0522 1.63109 36.0443C1.60548 36.0187 1.51274 35.4072 1.53219 35.3926C1.55596 35.3748 4.57705 34.809 4.68389 34.8024C4.7429 34.7987 4.77631 34.8627 4.81648 35.0562ZM56.8279 35.553C57.6678 35.7391 58.3628 35.898 58.3724 35.9061C58.382 35.9142 58.3637 36.0592 58.3318 36.2284C58.2885 36.458 58.2543 36.5359 58.1969 36.536C58.1129 36.5362 55.0791 35.8706 55.0452 35.8446C55.0233 35.8278 55.1294 35.2697 55.1657 35.2112C55.1771 35.1926 55.2122 35.1858 55.2437 35.1961C55.2752 35.2063 55.9881 35.367 56.8279 35.553ZM28.0736 36.16V36.9587H27.7447H27.4158V36.16V35.3613H27.7447H28.0736V36.16ZM31.2215 36.16V36.9587H30.0469H28.8723V36.16V35.3613H30.0469H31.2215V36.16ZM32.6674 36.1718L32.6803 36.9587H32.3503H32.0203V36.1578V35.357L32.3374 35.3709L32.6546 35.3848L32.6674 36.1718ZM55.7473 36.745C55.7473 36.8083 55.7244 36.9669 55.6964 37.0974C55.6527 37.3013 55.6299 37.3346 55.5342 37.3346C55.2287 37.3346 55.0425 37.5873 55.0425 38.002C55.0425 38.2745 55.1329 38.4153 55.3079 38.4153C55.4389 38.4153 55.6318 38.1688 55.8717 37.695C56.0577 37.3276 56.3438 36.9955 56.5467 36.9115C56.6288 36.8775 56.8114 36.8618 56.9909 36.8732C57.7398 36.9209 58.075 37.5608 57.8365 38.4876C57.6757 39.1122 57.3204 39.439 56.7526 39.4846L56.4373 39.5099L56.4682 39.2849C56.4852 39.1612 56.499 39.01 56.499 38.949C56.499 38.86 56.5239 38.8381 56.6251 38.8381C56.8397 38.8381 57.1406 38.6617 57.2233 38.4875C57.4124 38.0891 57.3296 37.6458 57.0479 37.5481C56.8334 37.4737 56.702 37.5891 56.4294 38.0919C56.1077 38.6852 55.969 38.8604 55.7287 38.9767C55.202 39.2317 54.6241 38.9431 54.4752 38.3507C54.3745 37.9502 54.5594 37.2461 54.8454 36.9411C55.0154 36.7597 55.3042 36.6322 55.5476 36.6309C55.7285 36.6299 55.7473 36.6407 55.7473 36.745ZM5.54215 37.8397C5.58894 37.9883 5.63659 38.1343 5.64805 38.1642C5.66107 38.1982 5.41416 38.3027 4.98623 38.4442C4.61083 38.5683 4.31281 38.679 4.32399 38.6902C4.33512 38.7013 4.74121 38.8859 5.22637 39.1004L6.1085 39.4903L6.25095 39.9308C6.34093 40.209 6.58759 40.731 6.92048 41.3474C7.21037 41.8843 7.44755 42.341 7.44755 42.3623C7.44755 42.4232 7.01233 42.6505 6.97343 42.6099C6.94312 42.5782 6.67315 42.0936 6.25246 41.316L6.13142 41.0923L5.85323 41.2327C5.7002 41.3099 5.56137 41.3953 5.54464 41.4223C5.52796 41.4493 5.62489 41.6771 5.76011 41.9284C5.89533 42.1798 6.06569 42.4963 6.13875 42.6319L6.27163 42.8784L6.08078 42.9989C5.97581 43.0651 5.86291 43.1297 5.82983 43.1424C5.79107 43.1573 5.64241 42.9272 5.4105 42.4935C5.21293 42.124 5.03383 41.7946 5.01254 41.7617C4.98337 41.7165 4.87981 41.7551 4.59016 41.9192L4.20639 42.1366L4.36496 42.4254C4.94352 43.4796 5.05135 43.683 5.05135 43.7205C5.05135 43.7436 4.95391 43.8196 4.8348 43.8894C4.65401 43.9954 4.60853 44.0058 4.5591 43.9526C4.48505 43.8729 3.40629 41.8676 3.4086 41.8139C3.40954 41.7923 3.72142 41.6079 4.10161 41.4041C5.79802 40.4949 6.1809 40.2779 6.1459 40.2458C6.04709 40.155 4.75206 39.5885 4.7273 39.6251C4.59819 39.8166 3.29818 41.4222 3.2723 41.4222C3.25393 41.4222 3.18218 41.2492 3.11283 41.0377L2.98677 40.6532L3.20121 40.3917C3.31914 40.2479 3.49293 40.0454 3.58747 39.9417C3.98453 39.5062 4.11167 39.3519 4.11167 39.3058C4.11167 39.2488 3.56167 38.9792 3.44534 38.9791C3.40188 38.9791 3.19205 39.0433 2.97902 39.1219C2.76595 39.2004 2.56767 39.2555 2.53836 39.2442C2.48475 39.2237 2.29451 38.6641 2.3305 38.6327C2.35042 38.6154 5.38292 37.5784 5.43037 37.5727C5.44503 37.5709 5.49535 37.6911 5.54215 37.8397ZM55.1307 39.164C55.4853 39.3449 55.6385 39.6381 55.5984 40.0587C55.5811 40.2399 55.6505 40.3191 55.7234 40.2013C55.7392 40.1758 55.862 40.1237 55.9963 40.0856C56.2845 40.0038 57.2946 39.8529 57.3283 39.8867C57.3411 39.8995 57.2799 40.0652 57.1921 40.255L57.0326 40.6L56.3782 40.7088C56.0183 40.7687 55.6501 40.8533 55.56 40.8968C55.3999 40.9741 55.1835 41.2368 55.1835 41.3539C55.1835 41.3862 55.4583 41.5357 55.7943 41.686C56.1302 41.8364 56.4051 41.9734 56.4051 41.9904C56.4051 42.0806 56.1633 42.5499 56.1169 42.5499C56.0869 42.5499 55.7113 42.3937 55.2823 42.2029C54.8532 42.012 54.2062 41.7243 53.8444 41.5636C53.4826 41.4028 53.1702 41.2559 53.15 41.2372C53.1065 41.197 53.8554 39.5629 54.0038 39.3742C54.2804 39.0225 54.6999 38.9443 55.1307 39.164ZM29.0838 39.7598C25.7352 39.908 22.5615 40.6884 19.5958 42.0927C19.2066 42.277 18.8796 42.4338 18.8692 42.4412C18.8588 42.4486 18.917 42.5996 18.9987 42.7768C19.9248 44.7859 19.9345 47.2147 19.0245 49.2115C18.9366 49.4044 18.8647 49.5715 18.8647 49.5829C18.8647 49.624 20.312 50.3015 20.885 50.5285C23.9655 51.7495 26.7462 52.2854 30 52.2854C33.2537 52.2854 36.0344 51.7495 39.1149 50.5285C39.7109 50.2923 41.1352 49.6233 41.1352 49.5796C41.1352 49.5665 41.0617 49.3944 40.9718 49.1973C40.0647 47.2067 40.0758 44.7846 41.0012 42.7768C41.0829 42.5996 41.1411 42.4486 41.1307 42.4412C41.1203 42.4338 40.79 42.2754 40.3967 42.0891C38.9295 41.3943 37.5134 40.8827 36.0139 40.5056C34.6658 40.1666 33.547 39.9766 32.1612 39.8512C31.3598 39.7787 29.7424 39.7307 29.0838 39.7598ZM54.4876 39.7803C54.4112 39.811 54.3097 39.9719 54.1451 40.3236C54.0164 40.5985 53.9183 40.8305 53.927 40.8393C53.9358 40.848 54.1064 40.9297 54.3062 41.0207L54.6695 41.1862L54.8264 40.8421C55.1421 40.1492 55.1522 39.9842 54.8886 39.8235C54.7227 39.7224 54.6513 39.7146 54.4876 39.7803ZM32.3727 40.5983C34.971 40.8728 37.5549 41.573 39.7802 42.6057L40.1871 42.7945L40.0936 43.0598C39.711 44.1449 39.5802 44.8934 39.5822 45.987C39.5843 47.1121 39.7014 47.832 40.0483 48.8528L40.1864 49.2593L39.7329 49.4695C36.866 50.7983 33.2987 51.5708 30.0301 51.5708C26.7269 51.5708 23.3434 50.8522 20.3965 49.5246L19.8131 49.2617L19.997 48.7143C20.5794 46.9808 20.5796 45.0628 19.9976 43.3349L19.8152 42.7934L20.2209 42.6051C22.5344 41.5315 25.3455 40.7907 27.9092 40.579C28.2451 40.5512 28.6045 40.5203 28.7079 40.5103C29.1523 40.4671 31.7137 40.5287 32.3727 40.5983ZM53.492 41.8572C53.492 41.8835 52.9628 42.8414 52.6631 43.3575C52.6465 43.3861 53.204 43.7245 53.2679 43.7245C53.2818 43.7245 53.4683 43.4126 53.6824 43.0314C53.8965 42.6503 54.0772 42.3311 54.084 42.3221C54.1003 42.3006 54.5727 42.5665 54.572 42.5968C54.5717 42.6098 54.3933 42.9369 54.1757 43.3237L53.7799 44.0271L54.1175 44.2261C54.3033 44.3355 54.4801 44.4259 54.5104 44.4271C54.5408 44.4283 54.761 44.0857 54.9997 43.6657C55.2385 43.2458 55.4411 42.8932 55.4501 42.8821C55.4664 42.8621 55.829 43.0483 55.9044 43.1155C55.9328 43.1407 54.873 45.1257 54.7286 45.3178C54.707 45.3465 54.62 45.2994 53.1886 44.4844C52.4662 44.073 51.868 43.7153 51.8594 43.6893C51.8507 43.6634 52.1103 43.174 52.4363 42.6019L53.0288 41.5615L53.2604 41.6916C53.3877 41.7631 53.492 41.8376 53.492 41.8572ZM7.75304 43.034L7.91847 43.2832L7.51342 44.1499C6.78981 45.6982 6.82407 45.6139 6.94406 45.5501C7.00134 45.5196 7.38647 45.2694 7.79993 44.9941C8.21339 44.7187 8.57737 44.4782 8.60876 44.4596C8.6455 44.4378 8.72763 44.5187 8.83908 44.6866C8.93431 44.8301 9.00376 44.9542 8.99342 44.9624C8.98304 44.9706 8.78425 45.1011 8.55167 45.2524C8.3191 45.4037 7.72066 45.7984 7.22183 46.1295C6.723 46.4606 6.28957 46.7311 6.25866 46.7306C6.19415 46.7296 5.89707 46.2941 5.89707 46.2005C5.89707 46.1662 6.12099 45.657 6.39468 45.0687C6.66831 44.4805 6.88143 43.9884 6.86818 43.9752C6.85498 43.9619 6.78432 43.9934 6.71126 44.045C6.48517 44.2048 5.29717 44.9839 5.20184 45.0349C5.12422 45.0764 5.09115 45.0514 4.96406 44.8554C4.88287 44.7301 4.81643 44.608 4.81643 44.5842C4.81643 44.5604 5.26504 44.2462 5.81329 43.886C6.36155 43.5258 6.95858 43.1307 7.13999 43.008C7.32144 42.8852 7.49636 42.7848 7.52869 42.7848C7.56106 42.7848 7.66198 42.8969 7.75304 43.034ZM21.1988 43.5204C21.1813 43.5378 21.1669 43.7284 21.1669 43.9437V44.3353H21.8952H22.6234V46.4026V48.4699H23.1168H23.6101V46.4026V44.3353H24.3402H25.0703L25.0567 43.9241L25.0431 43.513L23.1369 43.5008C22.0884 43.494 21.2163 43.5028 21.1988 43.5204ZM25.7244 45.9797V48.4699L26.7933 48.4695C27.3812 48.4693 27.9949 48.4476 28.1571 48.4213C28.9713 48.2892 29.5197 47.751 29.7487 46.8595C29.8412 46.4998 29.8515 45.6004 29.7678 45.2045C29.6767 44.7736 29.4346 44.2952 29.1798 44.0425C28.7175 43.5839 28.2947 43.4906 26.6758 43.4899L25.7244 43.4895V45.9797ZM30.3602 43.5209C30.3429 43.5381 30.3288 43.7284 30.3288 43.9437V44.3353H31.0571C31.7185 44.3353 31.7855 44.3428 31.7875 44.4175C31.7886 44.4627 31.794 45.3877 31.7992 46.473L31.8088 48.4464H32.3022H32.7955L32.8078 46.3908L32.82 44.3353H33.5243H34.2285V43.9124V43.4895H32.31C31.2548 43.4895 30.3774 43.5036 30.3602 43.5209ZM34.8966 45.3572C34.9177 47.4098 34.9265 47.4777 35.2221 47.8826C35.415 48.1468 35.8173 48.4046 36.1428 48.4726C36.5519 48.5581 37.3499 48.5491 37.6642 48.4554C38.003 48.3545 38.3485 48.1214 38.5134 47.8826C38.7754 47.5031 38.8025 47.2641 38.8062 45.2984L38.8095 43.513L38.3279 43.4996L37.8463 43.4863L37.8434 44.9562C37.8399 46.6729 37.8055 47.1546 37.6739 47.3309C37.4834 47.586 37.3489 47.6467 36.9384 47.6622C36.4447 47.6809 36.1912 47.5674 36.0139 47.2483L35.8965 47.0368L35.8821 45.2632L35.8678 43.4895H35.3726H34.8773L34.8966 45.3572ZM52.7255 45.3473C53.2513 46.1207 53.6716 46.7795 53.6594 46.8114C53.6154 46.9261 53.283 47.3422 53.2354 47.3423C53.1896 47.3423 49.9633 46.3972 49.9287 46.3736C49.888 46.3459 49.9866 46.1726 50.1518 45.9817L50.333 45.7723L51.513 46.1424C52.1621 46.3459 52.7022 46.5033 52.7133 46.4922C52.7245 46.481 52.4063 46.0128 52.0063 45.4517L51.279 44.4315L51.4762 44.1703C51.5847 44.0267 51.695 43.9163 51.7214 43.9251C51.7478 43.934 52.1997 44.5739 52.7255 45.3473ZM27.9286 44.3858C28.333 44.4725 28.6174 44.7349 28.7335 45.1284C28.8123 45.3955 28.8421 46.2057 28.7862 46.5625C28.7134 47.0272 28.546 47.3436 28.2979 47.4857C28.1145 47.5907 28.0371 47.6021 27.4041 47.6167L26.7111 47.6328V45.984V44.3353H27.2021C27.4722 44.3353 27.7991 44.358 27.9286 44.3858ZM9.95269 46.1436C10.3837 46.6989 10.7364 47.1711 10.7364 47.1928C10.7364 47.2145 10.6421 47.3001 10.5268 47.3829L10.3172 47.5334L10.028 47.1677C9.86883 46.9665 9.73051 46.793 9.72055 46.7821C9.71059 46.7713 9.65491 46.8055 9.59688 46.8583C9.39325 47.0434 7.58436 48.4229 7.54532 48.4229C7.52357 48.4229 7.41987 48.309 7.31486 48.1699L7.12387 47.917L8.20188 47.0838C8.79482 46.6256 9.27993 46.2408 9.27993 46.2288C9.27993 46.2167 9.15006 46.039 8.9913 45.8338C8.83255 45.6285 8.71344 45.4499 8.72664 45.4367C8.78575 45.3776 9.11821 45.1365 9.14222 45.1353C9.15688 45.1346 9.52162 45.5883 9.95269 46.1436ZM51.1311 47.5254C51.7836 48.0742 52.3166 48.5376 52.3156 48.5552C52.3145 48.5729 52.2191 48.6901 52.1035 48.8157C51.9169 49.0185 51.8842 49.037 51.8118 48.9802C51.767 48.945 51.1951 48.4644 50.541 47.9122L49.3516 46.9082L49.4594 46.7845C49.7984 46.3959 49.7932 46.3999 49.871 46.4655C49.9115 46.4998 50.4786 46.9767 51.1311 47.5254ZM51.4136 49.5275C51.4211 49.5537 51.3263 49.6744 51.2028 49.7958L50.9784 50.0165L49.7803 49.741C49.1213 49.5896 48.572 49.4755 48.5597 49.4875C48.5473 49.4995 48.8749 49.8332 49.2877 50.2289L50.0382 50.9483L49.8505 51.1612C49.7473 51.2783 49.6417 51.3758 49.6158 51.378C49.59 51.3803 49.0403 50.8661 48.3943 50.2353L47.2197 49.0886L47.4546 48.8523L47.6895 48.6159L48.8876 48.8944C49.5465 49.0475 50.1017 49.1679 50.1214 49.1619C50.1409 49.1558 49.8188 48.8131 49.4054 48.4003L48.6537 47.6498L48.8749 47.4253L49.096 47.2008L50.2479 48.3404C50.8815 48.9672 51.406 49.5014 51.4136 49.5275ZM12.2607 48.5059C12.9843 49.1619 13.1091 49.357 13.1091 49.8321C13.1091 50.0861 13.0817 50.1955 12.952 50.4589C12.6332 51.1066 11.985 51.628 11.4173 51.6936C11.0088 51.7409 10.7413 51.6013 10.0353 50.9726C9.69738 50.6716 9.42088 50.4111 9.42088 50.3936C9.42088 50.3506 11.5847 47.9529 11.6226 47.9538C11.6391 47.9543 11.9263 48.2027 12.2607 48.5059ZM11.2739 49.3282C11.0171 49.6156 10.6965 49.9682 10.5616 50.1118C10.4267 50.2553 10.3157 50.396 10.3149 50.4246C10.3127 50.5093 10.9345 51.0054 11.1002 51.0512C11.3685 51.1252 11.5729 51.0296 11.9371 50.6595C12.2863 50.3047 12.475 49.9885 12.4746 49.7588C12.4743 49.5695 12.3123 49.324 12.0021 49.0426L11.7409 48.8056L11.2739 49.3282ZM47.7835 50.1577C48.1452 50.6451 48.4994 51.1543 48.5704 51.2892C48.8616 51.8421 48.6383 52.3872 47.933 52.8447C47.3511 53.2222 46.8835 53.1803 46.4375 52.7106C46.2307 52.4929 45.149 51.0974 45.0208 50.8831C45.0019 50.8515 45.0962 50.7486 45.2517 50.6312C45.4705 50.466 45.5244 50.4435 45.5738 50.4967C45.6065 50.5319 45.9205 50.9447 46.2716 51.4139C46.6227 51.8833 46.9579 52.3008 47.0165 52.3419C47.2759 52.5236 47.7072 52.3822 47.9385 52.0395C48.1275 51.7594 48.1354 51.7756 47.1873 50.5073C46.8562 50.0645 46.586 49.6839 46.5867 49.6616C46.5881 49.6209 47.0516 49.2673 47.0999 49.2701C47.1141 49.2709 47.4217 49.6703 47.7835 50.1577ZM14.7959 50.6664C14.9622 50.7793 15.056 50.8763 15.0572 50.9364C15.0597 51.0695 14.3509 54.2645 14.3087 54.3103C14.2541 54.3695 13.7473 54.0035 13.7452 53.9033C13.7442 53.8554 13.7764 53.6889 13.8167 53.5334C13.857 53.3779 13.8793 53.2227 13.8662 53.1887C13.8387 53.1171 12.8796 52.4635 12.802 52.4635C12.7734 52.4635 12.615 52.56 12.4497 52.6779L12.1494 52.8922L11.8612 52.6965C11.7027 52.5889 11.5909 52.483 11.6128 52.4612C11.6863 52.3881 14.4692 50.4902 14.5029 50.4902C14.5213 50.4902 14.6531 50.5695 14.7959 50.6664ZM13.8017 51.706C13.5624 51.8819 13.3546 52.038 13.3398 52.0527C13.325 52.0675 13.475 52.1889 13.6729 52.3226C13.8709 52.4562 14.0385 52.5584 14.0453 52.5497C14.099 52.4813 14.3264 51.3832 14.2866 51.3845C14.2592 51.3854 14.041 51.53 13.8017 51.706ZM16.2547 51.8612C16.2526 52.0038 15.8896 53.9645 15.8265 54.1745C15.8009 54.2596 15.8064 54.2592 15.925 54.1658C15.9942 54.1114 16.4112 53.7432 16.8518 53.3475C17.2924 52.9517 17.6772 52.614 17.707 52.5968C17.7368 52.5797 17.8945 52.6459 18.0575 52.7439L18.3539 52.9222L17.5404 53.6159C17.093 53.9974 16.6106 54.41 16.4685 54.5327C16.3264 54.6554 16.0869 54.8572 15.9363 54.981L15.6624 55.2061L15.4584 55.0947C15.3462 55.0334 15.2067 54.9472 15.1483 54.9031L15.0421 54.8231L15.2665 53.5846C15.3899 52.9034 15.5312 52.1383 15.5804 51.8845C15.6296 51.6307 15.6698 51.412 15.6698 51.3986C15.6698 51.3853 15.8019 51.4488 15.9634 51.5398C16.2329 51.6917 16.2569 51.7181 16.2547 51.8612ZM44.4035 53.2582L45.7911 54.3578L45.478 54.5395C45.2147 54.6922 45.1526 54.7117 45.0881 54.6616C45.0459 54.6289 44.9149 54.5227 44.797 54.4255C44.679 54.3284 44.5567 54.2489 44.5252 54.2489C44.4259 54.2489 43.3903 54.8649 43.3929 54.9223C43.3943 54.9525 43.4228 55.1302 43.4562 55.3171C43.5149 55.6445 43.5135 55.6594 43.4185 55.7214C43.2642 55.8223 42.9131 55.9955 42.8967 55.9789C42.8887 55.9706 42.8263 55.5833 42.7582 55.1181C42.6901 54.653 42.5819 53.9236 42.5179 53.4972C42.4539 53.0708 42.3967 52.6714 42.3909 52.6096C42.3823 52.5187 42.4341 52.4633 42.6622 52.3195C42.8172 52.2217 42.9603 52.1455 42.98 52.1501C42.9998 52.1548 43.6404 52.6534 44.4035 53.2582ZM41.4406 53.1096C41.4221 53.1548 41.3267 53.4138 41.2286 53.6851C41.1305 53.9564 41.0059 54.2901 40.9518 54.4266L40.8535 54.6747L41.8396 55.3193C42.3819 55.6738 42.8194 55.9834 42.8116 56.0074C42.8039 56.0314 42.6359 56.1199 42.4384 56.2042L42.0791 56.3575L41.3704 55.842C40.9805 55.5584 40.6465 55.3357 40.6281 55.3471C40.6096 55.3585 40.5429 55.5165 40.4799 55.6983L40.3653 56.0288L40.5618 56.4863C40.6699 56.7379 40.7532 56.9474 40.7471 56.9519C40.6689 57.0088 40.1767 57.2028 40.1509 57.1869C40.132 57.1752 39.9827 56.8634 39.8193 56.4942C39.6559 56.125 39.3671 55.4744 39.1776 55.0484C38.9881 54.6224 38.833 54.2486 38.833 54.2178C38.833 54.1697 39.3025 53.92 39.3931 53.92C39.4106 53.92 39.5508 54.2052 39.7045 54.5537C39.8583 54.9022 39.9947 55.1876 40.0076 55.1879C40.0205 55.1881 40.1685 54.7814 40.3365 54.2841L40.6419 53.3797L40.9943 53.2057C41.3942 53.0081 41.4905 52.9874 41.4406 53.1096ZM43.0754 53.1221C43.0912 53.1824 43.14 53.4553 43.1839 53.7286C43.2278 54.0018 43.2691 54.2322 43.2756 54.2405C43.2909 54.26 43.6464 54.0784 43.8749 53.9343L44.0539 53.8213L43.6069 53.452C43.0457 52.9881 43.0393 52.9842 43.0754 53.1221ZM18.7927 53.1891C19.0304 53.2942 19.0487 53.3131 19.0099 53.4123C18.9866 53.4719 18.7647 54.0272 18.5167 54.6464C18.2688 55.2656 18.066 55.7871 18.066 55.8055C18.066 55.8238 18.3989 55.97 18.806 56.1303C19.213 56.2907 19.5533 56.4283 19.5622 56.4362C19.5712 56.4441 19.5362 56.563 19.4844 56.7006C19.4242 56.8605 19.366 56.9461 19.3227 56.9383C19.2855 56.9317 18.8871 56.7768 18.4373 56.5942C17.9876 56.4116 17.5297 56.2301 17.4199 56.1908C17.3101 56.1516 17.2197 56.1056 17.2191 56.0886C17.2185 56.0717 17.4863 55.3866 17.8143 54.5661C18.17 53.6762 18.4354 53.0743 18.4719 53.0743C18.5056 53.0743 18.6499 53.126 18.7927 53.1891ZM38.9944 55.7948C39.2674 56.6191 39.4908 57.3254 39.4908 57.3644C39.4908 57.4365 38.95 57.6516 38.879 57.6077C38.8594 57.5956 38.8292 57.5273 38.8119 57.456C38.7946 57.3847 38.5828 56.7238 38.3413 55.9873C38.0997 55.2509 37.8948 54.6083 37.886 54.5593C37.8733 54.4897 37.9209 54.4522 38.1047 54.3868C38.2339 54.3408 38.3753 54.3015 38.4189 54.2996C38.4819 54.2967 38.5997 54.6027 38.9944 55.7948ZM22.1301 54.4516L22.412 54.5547L22.5223 56.3079C22.583 57.2722 22.6208 58.073 22.6062 58.0875C22.5917 58.102 22.4363 58.0636 22.261 58.0021L21.9422 57.8902L21.9287 57.4889L21.9153 57.0877L21.3161 56.8899C20.9865 56.7811 20.6952 56.6921 20.6687 56.6921C20.6422 56.6921 20.5168 56.8295 20.39 56.9974C20.2029 57.245 20.1415 57.2969 20.0641 57.2724C19.6644 57.1456 19.5013 57.0765 19.5155 57.04C19.5674 56.9067 21.7193 54.3442 21.7777 54.3461C21.8165 54.3474 21.9751 54.3949 22.1301 54.4516ZM37.6607 55.4353C37.7714 55.881 37.9528 56.5944 38.0637 57.0206C38.1746 57.4467 38.2503 57.8078 38.232 57.8231C38.2137 57.8384 38.1036 57.8769 37.9873 57.9088C37.871 57.9406 37.7384 57.9774 37.6928 57.9906C37.6325 58.0079 37.3765 57.7843 36.7613 57.1771C36.2947 56.7165 35.8856 56.3244 35.8524 56.3057C35.8139 56.2841 35.885 56.6417 36.047 57.2854C36.1873 57.8429 36.2921 58.3089 36.28 58.321C36.2491 58.352 35.7252 58.4864 35.7069 58.4681C35.6987 58.4598 35.5202 57.7662 35.3102 56.9266C35.1002 56.087 34.9188 55.3671 34.907 55.3269C34.8906 55.2705 34.9584 55.2362 35.2032 55.1769L35.5206 55.1L35.8965 55.463C36.1032 55.6626 36.5149 56.0619 36.8113 56.3503C37.1078 56.6388 37.355 56.8702 37.3606 56.8646C37.3663 56.8589 37.255 56.3923 37.1134 55.8276C36.9718 55.2629 36.8689 54.7877 36.8849 54.7716C36.9118 54.7443 37.286 54.643 37.4062 54.6304C37.4371 54.6271 37.5433 54.9629 37.6607 55.4353ZM24.4663 55.0765C25.1195 55.2216 25.6723 55.3573 25.6947 55.3781C25.7558 55.4347 25.6332 55.8934 25.5571 55.8934C25.5219 55.8934 25.3096 55.8506 25.0852 55.7983C24.8609 55.746 24.6719 55.709 24.6653 55.716C24.6587 55.7231 24.5211 56.3209 24.3596 57.0445C24.1981 57.768 24.0608 58.3666 24.0544 58.3747C24.0254 58.4114 23.4557 58.2622 23.4368 58.2129C23.4161 58.1589 23.5543 57.4878 23.8477 56.2185C23.9265 55.8771 23.9741 55.5826 23.9533 55.564C23.9325 55.5454 23.7296 55.4921 23.5024 55.4456C23.2752 55.3991 23.0794 55.3451 23.0674 55.3257C23.0228 55.2535 23.1482 54.8127 23.2133 54.8127C23.2492 54.8127 23.813 54.9315 24.4663 55.0765ZM21.4371 55.6691C21.2368 55.9204 21.073 56.146 21.073 56.1703C21.073 56.2225 21.8184 56.4792 21.8571 56.4404C21.8717 56.4259 21.8651 56.1436 21.8424 55.813L21.8012 55.2121L21.4371 55.6691ZM34.8393 55.3066C34.8393 55.3198 34.6596 55.6896 34.44 56.1283C34.2203 56.567 34.0406 56.9503 34.0406 56.98C34.0406 57.0097 34.1199 57.1219 34.2168 57.2294C34.4952 57.5382 35.2842 58.4813 35.2999 58.5241C35.3163 58.5686 35.1615 58.6039 34.7923 58.6398L34.5339 58.6649L34.1346 58.1748C33.9149 57.9053 33.7195 57.6835 33.7003 57.6818C33.6811 57.6801 33.536 57.9378 33.3778 58.2543C33.2196 58.5709 33.0873 58.8333 33.0838 58.8375C33.0715 58.8522 32.3255 58.9347 32.3114 58.9229C32.3036 58.9164 32.503 58.4987 32.7545 57.9949L33.2118 57.0788L32.6106 56.3577L32.0094 55.6366L32.1676 55.6058C32.2545 55.589 32.4274 55.5646 32.5518 55.5517L32.7779 55.5284L33.1567 55.9713C33.365 56.2148 33.5409 56.408 33.5475 56.4004C33.5541 56.3929 33.6698 56.1685 33.8047 55.9018C33.9396 55.6351 34.0798 55.4055 34.1162 55.3916C34.2591 55.3367 34.8393 55.2685 34.8393 55.3066ZM27.8387 55.6133C28.9387 55.6826 29.2984 55.7198 29.2966 55.7642C29.2959 55.7835 29.2952 55.9077 29.2952 56.0399V56.2805L28.8019 56.2468C28.4032 56.2197 28.3083 56.2254 28.3076 56.2765C28.3072 56.3112 28.2651 56.9106 28.2141 57.6083C28.1632 58.306 28.1213 58.8938 28.121 58.9146C28.1208 58.9353 27.9696 58.9479 27.785 58.9425L27.4495 58.9327L27.4773 58.4584C27.4925 58.1976 27.5315 57.5884 27.5637 57.1047C27.596 56.621 27.6092 56.212 27.593 56.1958C27.5768 56.1796 27.3665 56.1525 27.1256 56.1356L26.6876 56.1048L26.673 55.8758C26.6532 55.564 26.6823 55.5046 26.8402 55.5344C26.9113 55.5477 27.3606 55.5833 27.8387 55.6133ZM31.9263 55.9404V56.2223L31.1393 56.2229C30.7065 56.2232 30.3039 56.2365 30.2447 56.2524C30.1435 56.2795 30.1379 56.3013 30.1507 56.6158L30.1644 56.9505H30.9866H31.8088L31.8228 57.2142L31.8367 57.4778L31.6583 57.5073C31.5602 57.5235 31.1893 57.537 30.8339 57.5373L30.1879 57.5378V57.99V58.4422L31.1158 58.4246L32.0438 58.407L32.0577 58.6708L32.0716 58.9347L31.8462 58.9636C31.7223 58.9796 31.1558 58.9947 30.5873 58.9971L29.5536 59.0016L29.5214 58.3049C29.5036 57.9218 29.4825 57.181 29.4744 56.6588L29.4596 55.7092L29.7415 55.6929C29.8966 55.6839 30.4516 55.6725 30.9749 55.6675L31.9263 55.6584V55.9404Z" fill="white"/>
</svg>
